<?xml version="1.0" standalone="yes"?>

<svg version="1.1" viewBox="0.0 0.0 461.0236220472441 464.8608923884514" fill="none" stroke="none" stroke-linecap="square" stroke-miterlimit="10" xmlns="http://www.w3.org/2000/svg" xmlns:xlink="http://www.w3.org/1999/xlink"><clipPath id="p.0"><path d="m0 0l461.02362 0l0 464.8609l-461.02362 0l0 -464.8609z" clip-rule="nonzero"></path></clipPath><g clip-path="url(#p.0)"><path fill="#000000" fill-opacity="0.0" d="m0 0l461.02362 0l0 464.8609l-461.02362 0z" fill-rule="evenodd"></path><path fill="#82f3cc" d="m232.56589 119.36627l0 0c-2.7235718 -45.899193 32.49948 -85.32915 78.67288 -88.06927l0 0c22.173248 -1.3158512 43.957916 6.1781693 60.561584 20.833466c16.603699 14.655296 26.66632 35.271378 27.974213 57.31295l0 0c2.7235718 45.8992 -32.49948 85.32915 -78.67288 88.06926l0 0c-46.1734 2.7401276 -85.812225 -32.247223 -88.5358 -78.14641z" fill-rule="evenodd"></path><path fill="#82f3cc" d="m61.672256 121.371376l0 0c-3.4808197 -58.66085 46.191956 -109.33421 110.947266 -113.18214l0 0c64.755295 -3.847918 120.07161 40.58674 123.552414 99.24759l0 0c3.480835 58.660843 -46.191956 109.33421 -110.94725 113.18213l0 0c-64.7553 3.847931 -120.07161 -40.58673 -123.55243 -99.24758z" fill-rule="evenodd"></path><path fill="#82f3cc" d="m13.615799 239.36244l0 0c-2.7234716 -45.897552 32.49715 -85.32895 78.667465 -88.07251l0 0c22.171768 -1.3175049 43.95497 6.1746216 60.55757 20.828201c16.6026 14.65358 26.664597 35.26825 27.972458 57.30902l0 0c2.723465 45.897552 -32.49716 85.32898 -78.667465 88.07251l0 0c-46.170315 2.7435608 -85.80656 -32.239655 -88.53003 -78.13722z" fill-rule="evenodd"></path><path fill="#82f3cc" d="m217.94708 342.76205l0 0c-3.0517883 -51.43042 38.450195 -95.73616 92.697235 -98.959656l0 0c26.050354 -1.5479736 51.615936 6.778595 71.0726 23.14795c19.456665 16.369385 31.210602 39.440643 32.676117 64.1384l0 0c3.0517883 51.43042 -38.450165 95.736145 -92.697235 98.959656l0 0c-54.24707 3.2234802 -100.696945 -35.855957 -103.74872 -87.28635z" fill-rule="evenodd"></path><path fill="#82f3cc" d="m283.68265 219.52753l0 0c-2.7234802 -45.897552 32.49713 -85.328964 78.66745 -88.072525l0 0c22.171783 -1.3174896 43.954987 6.174637 60.557587 20.828201c16.6026 14.65358 26.664581 35.26825 27.972443 57.309036l0 0c2.7234802 45.897552 -32.49716 85.328964 -78.66745 88.072495l0 0c-46.17032 2.7435608 -85.80658 -32.239655 -88.53003 -78.13721z" fill-rule="evenodd"></path><path fill="#82f3cc" d="m111.23126 362.51062l0 0c-3.123726 -52.642975 38.090714 -97.91806 92.05504 -101.124756l0 0c25.914581 -1.539917 51.363663 7.025696 70.748764 23.81253c19.38507 16.786804 31.118225 40.41971 32.618286 65.69977l0 0c3.1237488 52.642944 -38.0907 97.91803 -92.05502 101.124725l0 0c-53.964325 3.2066956 -100.24333 -36.869324 -103.367065 -89.51227z" fill-rule="evenodd"></path><path fill="#82f3cc" d="m153.6285 234.7326l0 0c-3.480835 -58.660843 46.191956 -109.33421 110.94725 -113.18213l0 0c64.75531 -3.8479156 120.071594 40.586746 123.55243 99.24759l0 0c3.480835 58.66086 -46.191956 109.33423 -110.947266 113.18213l0 0c-64.755295 3.847931 -120.071594 -40.58673 -123.552414 -99.24759z" fill-rule="evenodd"></path><path fill="#ff8ca6" d="m-154.3307 277.2384l0 0c0 7.050934 -5.715912 12.766846 -12.766846 12.766846l-13.678925 0l0 0c-3.385971 0 -6.6332703 -1.3450623 -9.027512 -3.7393188c-2.3942413 -2.3942566 -3.7393188 -5.6415405 -3.7393188 -9.027527l0 -16.954498c0 -7.050934 5.715912 -12.766846 12.76683 -12.766846l13.678925 0l0 0c7.050934 0 12.766846 5.715912 12.766846 12.766846z" fill-rule="evenodd"></path><path fill="#cda916" d="m-193.53806 63.01837l12.0 0l0 192.44095l-12.0 0z" fill-rule="evenodd"></path><path fill="#f1c71a" d="m-181.97113 63.01837l16.97638 0l0 192.44095l-16.97638 0z" fill-rule="evenodd"></path><path fill="#ffd732" d="m-166.33858 63.01837l12.0 0l0 192.44095l-12.0 0z" fill-rule="evenodd"></path><path fill="#f3d79f" d="m-193.97113 63.01837l18.49759 -43.1811l21.187454 43.1811z" fill-rule="evenodd"></path><path fill="#f3d79f" d="m-193.53806 68.90026c0.34414673 0.475502 0.8040314 -4.1412964 2.5699463 -4.0288696c1.7658997 0.11242676 5.6997375 4.759407 8.025482 4.703415c2.32576 -0.055999756 4.0684357 -3.9759445 5.9290314 -5.0393753c1.8605957 -1.063427 3.1994934 -2.4046364 5.2345886 -1.3412056c2.0350952 1.063427 4.999161 7.2742805 6.975937 7.7217827c1.9767914 0.44750977 3.1403198 -4.421257 4.8847504 -5.036743c1.7444153 -0.61548615 5.064926 2.4072647 5.5818024 1.3438339c0.5168762 -1.0634308 -0.27093506 -6.045059 -2.4805145 -7.724411c-2.2095642 -1.6793518 -6.015396 -2.631672 -10.776932 -2.3517075c-4.761551 0.27996445 -13.5525055 3.2196007 -17.792343 4.031498c-4.2398376 0.8118973 -6.288086 -0.44707108 -7.646698 0.83989334c-1.3586273 1.2869644 -0.8491974 6.4063873 -0.50505066 6.8818893z" fill-rule="evenodd"></path><path fill="#000000" d="m-181.19423 33.601048l5.8722534 -13.763777l6.726181 13.763777z" fill-rule="evenodd"></path><path fill="#b7b7b7" d="m-193.5433 253.14174l39.2126 0l0 13.763779l-39.2126 0z" fill-rule="evenodd"></path><path fill="#000000" fill-opacity="0.0" d="m-193.5433 263.11285l39.2126 0" fill-rule="evenodd"></path><path stroke="#666666" stroke-width="2.0" stroke-linejoin="round" stroke-linecap="butt" d="m-193.5433 263.11285l39.2126 0" fill-rule="evenodd"></path><path fill="#000000" fill-opacity="0.0" d="m-193.5433 257.04987l39.2126 0" fill-rule="evenodd"></path><path stroke="#666666" stroke-width="2.0" stroke-linejoin="round" stroke-linecap="butt" d="m-193.5433 257.04987l39.2126 0" fill-rule="evenodd"></path><path fill="#434343" d="m-120.631134 158.18968l52.352455 0l0 88.07631l-52.352455 0z" fill-rule="evenodd"></path><path stroke="#000000" stroke-width="2.0" stroke-linejoin="round" stroke-linecap="butt" d="m-120.631134 158.18968l52.352455 0l0 88.07631l-52.352455 0z" fill-rule="evenodd"></path><path fill="#cccccc" d="m-115.44521 163.19855l42.49469 0l0 35.95247l-42.49469 0z" fill-rule="evenodd"></path><path stroke="#000000" stroke-width="2.0" stroke-linejoin="round" stroke-linecap="butt" d="m-115.44521 163.19855l42.49469 0l0 35.95247l-42.49469 0z" fill-rule="evenodd"></path><path fill="#000000" d="m-114.38927 209.64145l5.7729416 0l0 5.239197l-5.7729416 0z" fill-rule="evenodd"></path><path fill="#000000" d="m-105.802795 209.64145l5.7729416 0l0 5.239197l-5.7729416 0z" fill-rule="evenodd"></path><path fill="#000000" d="m-97.21633 209.64145l5.7729416 0l0 5.239197l-5.7729416 0z" fill-rule="evenodd"></path><path fill="#000000" d="m-88.62986 209.64145l5.7729416 0l0 5.239197l-5.7729416 0z" fill-rule="evenodd"></path><path fill="#000000" d="m-80.04339 209.64145l5.7729416 0l0 5.239197l-5.7729416 0z" fill-rule="evenodd"></path><path fill="#f1c232" d="m-80.04339 201.77663l5.7729416 0l0 5.239212l-5.7729416 0z" fill-rule="evenodd"></path><path fill="#000000" d="m-88.59512 201.77663l5.7729416 0l0 5.239212l-5.7729416 0z" fill-rule="evenodd"></path><path fill="#000000" d="m-114.51518 218.35368l5.7729416 0l0 5.239197l-5.7729416 0z" fill-rule="evenodd"></path><path fill="#000000" d="m-105.92871 218.35368l5.7729416 0l0 5.239197l-5.7729416 0z" fill-rule="evenodd"></path><path fill="#000000" d="m-97.34225 218.35368l5.7729416 0l0 5.239197l-5.7729416 0z" fill-rule="evenodd"></path><path fill="#000000" d="m-88.755775 218.35368l5.7729416 0l0 5.239197l-5.7729416 0z" fill-rule="evenodd"></path><path fill="#000000" d="m-80.169304 218.35368l5.7729416 0l0 5.239197l-5.7729416 0z" fill-rule="evenodd"></path><path fill="#000000" d="m-114.38927 227.50938l5.7729416 0l0 5.239212l-5.7729416 0z" fill-rule="evenodd"></path><path fill="#000000" d="m-105.802795 227.50938l5.7729416 0l0 5.239212l-5.7729416 0z" fill-rule="evenodd"></path><path fill="#000000" d="m-97.21633 227.50938l5.7729416 0l0 5.239212l-5.7729416 0z" fill-rule="evenodd"></path><path fill="#000000" d="m-88.62986 227.50938l5.7729416 0l0 5.239212l-5.7729416 0z" fill-rule="evenodd"></path><path fill="#000000" d="m-80.04339 227.50938l5.7729416 0l0 5.239212l-5.7729416 0z" fill-rule="evenodd"></path><path fill="#6aa84f" d="m-114.51431 235.779l5.7729416 0l0 5.239197l-5.7729416 0z" fill-rule="evenodd"></path><path fill="#3d85c6" d="m-105.92784 235.779l5.7729416 0l0 5.239197l-5.7729416 0z" fill-rule="evenodd"></path><path fill="#000000" d="m-97.34138 235.779l5.7729416 0l0 5.239197l-5.7729416 0z" fill-rule="evenodd"></path><path fill="#000000" d="m-88.754906 235.779l5.7729416 0l0 5.239197l-5.7729416 0z" fill-rule="evenodd"></path><path fill="#000000" d="m-80.168434 235.779l5.7729416 0l0 5.239197l-5.7729416 0z" fill-rule="evenodd"></path><path fill="#000000" fill-opacity="0.0" d="m-115.681404 192.8272l42.453003 0" fill-rule="evenodd"></path><path stroke="#000000" stroke-width="2.0" stroke-linejoin="round" stroke-linecap="butt" d="m-115.681404 192.8272l42.453003 0" fill-rule="evenodd"></path><path fill="#000000" fill-opacity="0.0" d="m-105.33388 163.79672l0.10420227 35.29242" fill-rule="evenodd"></path><path stroke="#000000" stroke-width="2.0" stroke-linejoin="round" stroke-linecap="butt" d="m-105.33388 163.79672l0.10420227 35.29242" fill-rule="evenodd"></path><path fill="#000000" fill-opacity="0.0" d="m-115.453896 179.63293c0.35690308 0.8978424 1.1048584 3.6460724 2.1414108 5.387024c1.0365448 1.7409515 2.4586487 3.8125153 4.077873 5.058716c1.6192322 1.2462006 3.2482986 2.1067963 5.6374817 2.4184875c2.389183 0.31169128 5.766571 0.25782776 8.697617 -0.5483246c2.9310532 -0.8061676 6.685028 -2.6940918 8.888664 -4.2886505c2.2036438 -1.594574 3.286209 -3.0427399 4.3331833 -5.2787323c1.0469666 -2.2360077 1.5639343 -5.754593 1.9486237 -8.137268c0.38468933 -2.3826752 0.29959106 -4.417572 0.3595047 -6.1588135c0.059921265 -1.7412415 0 -3.5738678 0 -4.2886505" fill-rule="evenodd"></path><path stroke="#000000" stroke-width="2.0" stroke-linejoin="round" stroke-linecap="butt" d="m-115.453896 179.63293c0.35690308 0.8978424 1.1048584 3.6460724 2.1414108 5.387024c1.0365448 1.7409515 2.4586487 3.8125153 4.077873 5.058716c1.6192322 1.2462006 3.2482986 2.1067963 5.6374817 2.4184875c2.389183 0.31169128 5.766571 0.25782776 8.697617 -0.5483246c2.9310532 -0.8061676 6.685028 -2.6940918 8.888664 -4.2886505c2.2036438 -1.594574 3.286209 -3.0427399 4.3331833 -5.2787323c1.0469666 -2.2360077 1.5639343 -5.754593 1.9486237 -8.137268c0.38468933 -2.3826752 0.29959106 -4.417572 0.3595047 -6.1588135c0.059921265 -1.7412415 0 -3.5738678 0 -4.2886505" fill-rule="evenodd"></path><path fill="#efefef" d="m530.14746 182.66766c1.579773 0.9758606 3.8468018 2.149063 5.540039 2.729538c1.6932373 0.5804596 2.9342651 0.79315186 4.619385 0.7532501c1.6851196 -0.039886475 4.9055786 -2.2135468 5.491272 -0.99261475c0.58569336 1.2209167 -1.0896606 4.9856873 -1.9771118 8.3181305c-0.8874512 3.332428 0.8261719 -2.4285889 -3.3475952 11.676483c-4.173767 14.105072 -16.508972 58.344925 -21.695007 72.95393c-5.185974 14.609009 -6.211487 12.910278 -9.421112 14.700073c-3.2096252 1.7897949 -8.094238 -0.9924011 -9.836578 -3.9612427c-1.7423401 -2.9688416 -2.522644 -4.190796 -0.6174927 -13.851837c1.9051514 -9.661041 8.074432 -30.078812 12.048401 -44.11441c3.973999 -14.035599 9.252686 -31.54303 11.795532 -40.099182c2.5428467 -8.556168 2.2280884 -9.885757 3.4614868 -11.237778c1.2333374 -1.3520203 2.3589478 2.1497955 3.9387817 3.1256561z" fill-rule="evenodd"></path><path stroke="#666666" stroke-width="4.0" stroke-linejoin="round" stroke-linecap="butt" d="m530.14746 182.66766c1.579773 0.9758606 3.8468018 2.149063 5.540039 2.729538c1.6932373 0.5804596 2.9342651 0.79315186 4.619385 0.7532501c1.6851196 -0.039886475 4.9055786 -2.2135468 5.491272 -0.99261475c0.58569336 1.2209167 -1.0896606 4.9856873 -1.9771118 8.3181305c-0.8874512 3.332428 0.8261719 -2.4285889 -3.3475952 11.676483c-4.173767 14.105072 -16.508972 58.344925 -21.695007 72.95393c-5.185974 14.609009 -6.211487 12.910278 -9.421112 14.700073c-3.2096252 1.7897949 -8.094238 -0.9924011 -9.836578 -3.9612427c-1.7423401 -2.9688416 -2.522644 -4.190796 -0.6174927 -13.851837c1.9051514 -9.661041 8.074432 -30.078812 12.048401 -44.11441c3.973999 -14.035599 9.252686 -31.54303 11.795532 -40.099182c2.5428467 -8.556168 2.2280884 -9.885757 3.4614868 -11.237778c1.2333374 -1.3520203 2.3589478 2.1497955 3.9387817 3.1256561z" fill-rule="evenodd"></path><path fill="#ff951e" d="m518.4631 223.42302c1.6321411 0.793396 3.951477 1.7840118 5.654236 2.331314c1.7027588 0.54730225 2.9294434 0.809906 4.562256 0.95248413c1.6328125 0.14256287 4.543518 -0.9505768 5.234558 -0.09706116c0.69104004 0.8535309 -0.5596924 3.137207 -1.0883789 5.2181854c-0.5286865 2.0809784 0.5595703 -1.4986115 -2.0836182 7.2677155c-2.6431885 8.766342 -10.199463 36.337112 -13.775452 45.330307c-3.5759888 8.993195 -4.7420044 7.7845764 -7.6805725 8.628876c-2.9385376 0.84432983 -7.9613953 -1.455719 -9.950745 -3.5630188c-1.9893494 -2.1072693 -2.8695068 -2.9809265 -1.9853516 -9.080658c0.8841553 -6.099762 4.8341675 -18.776703 7.2902527 -27.517792c2.4560547 -8.741074 5.8321533 -19.612167 7.446228 -24.928741c1.6140137 -5.316574 1.175354 -6.2137604 2.2380981 -6.970688c1.0628052 -0.75694275 2.5064087 1.6356812 4.138489 2.4290771z" fill-rule="evenodd"></path><path fill="#000000" fill-opacity="0.0" d="m529.7012 184.22441c1.579773 0.97587585 3.8468018 2.149063 5.540039 2.729538c1.6932373 0.5804596 2.9342651 0.79315186 4.619385 0.7532654c1.6850586 -0.039901733 4.9055786 -2.2135468 5.491272 -0.99263c0.58569336 1.2209167 -1.0896606 4.9856873 -1.9771118 8.3181305c-0.8874512 3.332428 0.8261719 -2.4285889 -3.3475952 11.676483c-4.173767 14.105072 -16.508972 58.34494 -21.695007 72.95395c-5.186035 14.609009 -6.211548 12.910248 -9.421143 14.700073c-3.2096252 1.7897949 -8.094238 -0.9924011 -9.836578 -3.9612427c-1.7423401 -2.9688416 -2.522644 -4.190796 -0.6174927 -13.851837c1.9051514 -9.661041 8.074432 -30.078827 12.048431 -44.114426c3.973999 -14.035599 9.252686 -31.54303 11.795471 -40.099182c2.5428467 -8.556168 2.2281494 -9.885757 3.4614868 -11.237778c1.2333984 -1.3520203 2.3590088 2.1497955 3.9388428 3.1256561z" fill-rule="evenodd"></path><path stroke="#666666" stroke-width="4.0" stroke-linejoin="round" stroke-linecap="butt" d="m529.7012 184.22441c1.579773 0.97587585 3.8468018 2.149063 5.540039 2.729538c1.6932373 0.5804596 2.9342651 0.79315186 4.619385 0.7532654c1.6850586 -0.039901733 4.9055786 -2.2135468 5.491272 -0.99263c0.58569336 1.2209167 -1.0896606 4.9856873 -1.9771118 8.3181305c-0.8874512 3.332428 0.8261719 -2.4285889 -3.3475952 11.676483c-4.173767 14.105072 -16.508972 58.34494 -21.695007 72.95395c-5.186035 14.609009 -6.211548 12.910248 -9.421143 14.700073c-3.2096252 1.7897949 -8.094238 -0.9924011 -9.836578 -3.9612427c-1.7423401 -2.9688416 -2.522644 -4.190796 -0.6174927 -13.851837c1.9051514 -9.661041 8.074432 -30.078827 12.048431 -44.114426c3.973999 -14.035599 9.252686 -31.54303 11.795471 -40.099182c2.5428467 -8.556168 2.2281494 -9.885757 3.4614868 -11.237778c1.2333984 -1.3520203 2.3590088 2.1497955 3.9388428 3.1256561z" fill-rule="evenodd"></path><path fill="#ff951e" d="m522.47296 216.45459l0 0c0.79345703 -2.7674255 3.5458984 -4.406189 6.147766 -3.6602936l0 0c1.2495117 0.35820007 2.2964478 1.2296448 2.9105225 2.4226532c0.61413574 1.1930084 0.74505615 2.6098328 0.3640747 3.938797l0 0c-0.793396 2.7674255 -3.5458374 4.406204 -6.147766 3.6602936l0 0c-2.6019287 -0.7458954 -4.067993 -3.5940094 -3.2745972 -6.36145z" fill-rule="evenodd"></path><path fill="#ff951e" d="m521.88165 206.01852l0 0c0.4961548 -1.7306976 2.1973877 -2.7613068 3.7996826 -2.3019562l0 0c0.7694702 0.22058105 1.4127808 0.7622986 1.7883911 1.5059509c0.3756714 0.7436676 0.45281982 1.6283569 0.21453857 2.4594727l0 0c-0.49621582 1.7306824 -2.1973877 2.7613068 -3.7997437 2.301941l0 0c-1.602356 -0.4593506 -2.4990845 -2.234726 -2.0028687 -3.9654083z" fill-rule="evenodd"></path><path fill="#ff951e" d="m530.09595 199.26997l0 0c0.62323 -2.1738129 2.7799683 -3.4625702 4.8172607 -2.87854l0 0c0.9783325 0.2804718 1.7976685 0.9641266 2.277832 1.900589c0.48016357 0.93647766 0.5817871 2.0490265 0.28253174 3.092926l0 0c-0.62323 2.1738129 -2.7800293 3.4625854 -4.8172607 2.8785553l0 0c-2.0372925 -0.5840454 -3.1835938 -2.8197174 -2.5603638 -4.9935303z" fill-rule="evenodd"></path><path fill="#ff951e" d="m526.3202 190.53679l0 0c0.4961548 -1.7306824 2.1973877 -2.7613068 3.7996826 -2.301941l0 0c0.7694702 0.22058105 1.4127808 0.7622986 1.7883911 1.5059509c0.3756714 0.7436676 0.45281982 1.6283569 0.21453857 2.4594574l0 0c-0.49621582 1.7306976 -2.1973877 2.7613068 -3.7997437 2.3019562l0 0c-1.602356 -0.4593506 -2.4990845 -2.234726 -2.0028687 -3.9654236z" fill-rule="evenodd"></path><path fill="#9f6d2a" d="m117.27483 206.02356c-2.480339 -1.6788177 -11.027657 -3.1151733 -16.165 -3.9411926c-5.1373444 -0.8260193 -11.970589 -1.5878754 -14.659058 -1.0149231c-2.688469 0.572937 -3.4704056 2.9788666 -1.4717407 4.4526215c1.9986649 1.4737549 8.294937 3.2839813 13.463745 4.389862c5.168808 1.1058807 14.410423 2.8931274 17.549095 2.2453918c3.1386795 -0.64772034 3.763298 -4.4529266 1.282959 -6.1317596z" fill-rule="evenodd"></path><path fill="#291c0a" d="m479.69336 338.64508l15.917358 -13.960205l36.47119 -2.8491516l25.931091 18.33545l9.323242 19.202759l-0.72662354 17.856506l2.7818604 21.423157l17.48584 15.963684l-23.635864 -6.2654724l16.068665 20.727234l-27.39441 -14.505829l-1.0720825 11.307465l-28.71283 -39.756042l-2.4491577 -7.269989l-1.7037964 -8.455688l-4.6394653 -25.076324" fill-rule="evenodd"></path><path fill="#434343" d="m239.37079 392.42215c-3.6647491 3.265503 -2.0265503 10.872253 3.7562866 13.06366c5.782837 2.1914062 24.045746 1.123352 30.940765 0.08480835c6.8950195 -1.0385437 9.297821 -3.7716064 10.429352 -6.3160706c1.1315308 -2.544464 -0.4098816 -6.723816 -3.6401672 -8.950775c-3.2302551 -2.2269287 -8.827057 -4.7640076 -15.741425 -4.4109497c-6.914398 0.35305786 -22.080063 3.263855 -25.744812 6.5293274z" fill-rule="evenodd"></path><path fill="#ffffff" d="m241.78952 389.26535c-3.274231 2.0811157 -3.4252014 6.850128 0.43351746 8.182922c3.8587036 1.3327942 17.467667 0.5199585 22.718765 -0.18624878c5.251068 -0.7062378 7.5032654 -2.4429016 8.787811 -4.0511475c1.2845154 -1.6082458 0.8962097 -4.2235107 -1.0806274 -5.598419c-1.9768677 -1.3748779 -5.6373596 -2.9263916 -10.780579 -2.6509094c-5.1432495 0.27548218 -16.804672 2.2226562 -20.078888 4.3038025z" fill-rule="evenodd"></path><path fill="#434343" d="m215.52576 385.9778c4.1691284 2.4872437 3.9876404 10.25708 -1.2284241 13.526794c-5.2160797 3.2697449 -23.17128 5.769989 -30.068008 6.0915833c-6.8967133 0.32159424 -9.740051 -1.8891296 -11.312347 -4.162018c-1.5722961 -2.2728577 -0.848999 -6.666321 1.8786163 -9.475189c2.7276 -2.8088684 7.698654 -6.3811035 14.487015 -7.37796c6.7883606 -0.9968567 22.074036 -1.0904846 26.243149 1.3967896z" fill-rule="evenodd"></path><path fill="#ffffff" d="m212.58832 383.35504c3.5696564 1.4028625 4.601288 6.045349 1.0967407 8.100311c-3.504547 2.0549622 -16.88736 3.9014893 -22.124039 4.22937c-5.236679 0.32791138 -7.7486877 -0.9359741 -9.296036 -2.2619934c-1.547348 -1.3260498 -1.6550446 -3.9634094 0.011978149 -5.694153c1.6670074 -1.7307739 4.938217 -3.9614868 9.990112 -4.6904297c5.051895 -0.72891235 16.751572 -1.0859985 20.321243 0.31689453z" fill-rule="evenodd"></path><path fill="#9f6d2a" d="m341.03857 200.39061c0.67544556 -2.2406006 5.8661804 -7.097748 9.01059 -9.992569c3.1444397 -2.8948212 7.548645 -6.5234375 9.855957 -7.376358c2.307312 -0.85292053 4.452606 0.373703 3.9879456 2.2588348c-0.46466064 1.8851318 -3.7931519 5.958435 -6.77594 9.051956c-2.9827576 3.093521 -8.4409485 8.499466 -11.120697 9.509155c-2.6797485 1.0096893 -5.633301 -1.2104187 -4.957855 -3.4510193z" fill-rule="evenodd"></path><path fill="#9f6d2a" d="m345.81732 201.12285c1.1535645 -2.2049255 7.0747375 -6.115509 10.65036 -8.434341c3.575592 -2.3188171 8.4823 -5.1174927 10.803284 -5.478607c2.320984 -0.36109924 3.9980774 1.432663 3.1226807 3.311966c-0.87542725 1.8792877 -4.9006042 5.397766 -8.375153 7.963806c-3.4745483 2.56604 -9.771912 6.9928894 -12.472107 7.432419c-2.7001953 0.43952942 -4.882599 -2.5903015 -3.729065 -4.7952423z" fill-rule="evenodd"></path><path fill="#9f6d2a" d="m347.42868 204.06688c1.5726929 -1.9269104 7.911621 -4.7495728 11.729492 -6.4134064c3.8179016 -1.6638184 8.967316 -3.5812073 11.177826 -3.569519c2.2105103 0.011688232 3.3268738 1.9807434 2.0851746 3.6396332c-1.2416992 1.6588745 -5.7521667 4.3984222 -9.535339 6.3136444c-3.7831726 1.9152374 -10.587494 5.1727905 -13.163696 5.1777344c-2.5761719 0.0049438477 -3.8661194 -3.221161 -2.293457 -5.1480865z" fill-rule="evenodd"></path><path fill="#9f6d2a" d="m346.3678 204.67125c2.0794373 -1.4250641 8.460724 -2.051773 12.289429 -2.3917084c3.8287354 -0.33995056 8.860596 -0.46029663 10.682892 0.35205078c1.8222961 0.81233215 1.9483643 3.2545013 0.25094604 4.5219574c-1.6974487 1.267456 -6.5338135 2.4700623 -10.435547 3.0827942c-3.9017334 0.61273193 -10.843597 1.5210724 -12.974884 0.59355164c-2.1312866 -0.9275055 -1.892273 -4.7335815 0.1871643 -6.1586456z" fill-rule="evenodd"></path><path fill="#9f6d2a" d="m345.4183 196.40292l6.051697 12.524567l-19.018372 11.637665l-6.051697 -12.524567z" fill-rule="evenodd"></path><path fill="#9f6d2a" d="m343.71317 206.76083c-1.4270325 -1.3862457 -1.3576355 -7.306671 -1.2731323 -10.874939c0.084472656 -3.5682526 0.5831299 -8.403015 1.7800598 -10.534637c1.1969604 -2.1316223 4.1129456 -3.340332 5.401581 -2.2550964c1.2886047 1.0852509 2.100006 5.248703 2.3301392 8.766571c0.23010254 3.517868 0.42364502 9.8576355 -0.9494629 12.340652c-1.3731079 2.483017 -5.8621216 3.943695 -7.2891846 2.5574493z" fill-rule="evenodd"></path><path fill="#9f6d2a" d="m218.80081 225.5433l31.590546 0l0 20.0l-31.590546 0z" fill-rule="evenodd"></path><path fill="#9f6d2a" d="m151.39896 154.92126l0 0c0 -40.434204 34.879486 -73.2126 77.9055 -73.2126l0 0c20.661835 0 40.4774 7.7134476 55.08751 21.443474c14.610138 13.730019 22.818024 32.351936 22.818024 51.769127l0 0c0 40.43419 -34.879486 73.212585 -77.90553 73.212585l0 0c-43.026016 0 -77.9055 -32.778397 -77.9055 -73.212585z" fill-rule="evenodd"></path><path fill="#000000" d="m261.2496 329.5643l0 65.44882l-24.503952 -0.03149414l0 -65.44882z" fill-rule="evenodd"></path><path fill="#000000" d="m227.26266 327.23364l-6.6141663 65.102356l-23.622055 -2.4252014l6.6141815 -65.102356z" fill-rule="evenodd"></path><path fill="#291c0a" d="m159.45932 136.53543l2.6850433 29.551178l14.776901 -42.984245l4.0288696 21.490807l25.522308 -28.207344l-2.6850433 20.149605l26.86615 -25.522308l51.0446 20.146988l-8.060364 -17.461945l30.89502 42.986877l-4.0288696 -33.58268l-40.299225 -30.895012l-42.984238 0l-40.29921 17.461937z" fill-rule="evenodd"></path><path fill="#291c0a" d="m236.75066 98.04199l-0.49868774 -14.0l-3.0 -4.0l-8.501312 -3.4986877l-15.0 1.4986877l-24.498688 10.0l-12.0 9.0l-11.501312 13.501312l-11.498688 24.498688l-1.5013123 19.0l0.9265137 10.986877l6.7165375 17.27034l13.430435 14.391083l-7.67453 -18.230972l1.9186249 1.9186401l1.3910828 10.469803l-3.2073517 -22.304459l0 -34.0l36.0 -32.0z" fill-rule="evenodd"></path><path stroke="#291c0a" stroke-width="8.0" stroke-miterlimit="8.0" stroke-linecap="butt" d="m236.75066 98.04199l-0.49868774 -14.0l-3.0 -4.0l-8.501312 -3.4986877l-15.0 1.4986877l-24.498688 10.0l-12.0 9.0l-11.501312 13.501312l-11.498688 24.498688l-1.5013123 19.0l0.9265137 10.986877l6.7165375 17.27034l13.430435 14.391083l-7.67453 -18.230972l1.9186249 1.9186401l1.3910828 10.469803l-3.2073517 -22.304459l0 -34.0l36.0 -32.0z" fill-rule="evenodd"></path><path fill="#291c0a" d="m232.20735 96.855644l0.42520142 -14.257217l2.556427 -4.073494l7.2467194 -3.5643005l12.784775 1.5275574l20.879257 10.183723l10.228363 9.1653595l9.803131 13.748032l9.797913 24.950127l1.2808228 19.34909l-4.0183716 14.981613l-3.3516846 9.286102l2.3910522 -8.3280945l1.9186401 -25.905502l-0.9580078 26.866135l-9.041992 19.186356l1.5538025 -21.317581l0 -34.62468l-30.682404 -32.590546z" fill-rule="evenodd"></path><path stroke="#291c0a" stroke-width="8.0" stroke-miterlimit="8.0" stroke-linecap="butt" d="m232.20735 96.855644l0.42520142 -14.257217l2.556427 -4.073494l7.2467194 -3.5643005l12.784775 1.5275574l20.879257 10.183723l10.228363 9.1653595l9.803131 13.748032l9.797913 24.950127l1.2808228 19.34909l-4.0183716 14.981613l-3.3516846 9.286102l2.3910522 -8.3280945l1.9186401 -25.905502l-0.9580078 26.866135l-9.041992 19.186356l1.5538025 -21.317581l0 -34.62468l-30.682404 -32.590546z" fill-rule="evenodd"></path><path fill="#000000" d="m245.75066 160.5433l0 0c0 -5.5228424 4.589966 -10.0 10.251968 -10.0l0 0c2.7189941 0 5.3266296 1.0535736 7.249237 2.9289398c1.9226074 1.8753662 3.0027466 4.4188995 3.0027466 7.07106l0 0c0 5.5228577 -4.589966 10.0 -10.251984 10.0l0 0c-5.6620026 0 -10.251968 -4.4771423 -10.251968 -10.0z" fill-rule="evenodd"></path><path fill="#ffffff" d="m255.24934 160.5433l0 0c0 -2.0786743 1.6780548 -3.7637787 3.7480316 -3.7637787l0 0c0.9940491 0 1.9473572 0.3965454 2.6502686 1.1023865c0.70288086 0.70584106 1.0977478 1.6631775 1.0977478 2.6613922l0 0c0 2.0786743 -1.6780396 3.7637787 -3.7480164 3.7637787l0 0c-2.0699768 0 -3.7480316 -1.6851044 -3.7480316 -3.7637787z" fill-rule="evenodd"></path><path fill="#000000" d="m203.75066 160.5433l0 0c0 -5.5228424 4.589966 -10.0 10.251968 -10.0l0 0c2.7189941 0 5.3266144 1.0535736 7.249237 2.9289398c1.9226227 1.8753662 3.0027313 4.4188995 3.0027313 7.07106l0 0c0 5.5228577 -4.589966 10.0 -10.251968 10.0l0 0c-5.6620026 0 -10.251968 -4.4771423 -10.251968 -10.0z" fill-rule="evenodd"></path><path fill="#ffffff" d="m213.24934 160.5433l0 0c0 -2.0786743 1.6780548 -3.7637787 3.7480316 -3.7637787l0 0c0.9940338 0 1.9473724 0.3965454 2.6502533 1.1023865c0.7028961 0.70584106 1.0977783 1.6631775 1.0977783 2.6613922l0 0c0 2.0786743 -1.6780548 3.7637787 -3.7480316 3.7637787l0 0c-2.0699768 0 -3.7480316 -1.6851044 -3.7480316 -3.7637787z" fill-rule="evenodd"></path><path fill="#604219" d="m225.75066 175.04199l20.0 0.38189697l-1.5013123 4.188904l-4.4986877 3.4291077l-6.5013123 0l-5.0 -2.2854004z" fill-rule="evenodd"></path><path fill="#291c0a" d="m198.94951 151.79987l-2.54599 -5.271057l10.88414 -6.6331635l17.756409 -3.313446l-16.306702 7.688095z" fill-rule="evenodd"></path><path fill="#291c0a" d="m273.24933 150.5433l2.0 -5.5013123l-11.498657 -5.4986877l-18.000015 -1.5013123l17.000015 6.0z" fill-rule="evenodd"></path><path fill="#ffffff" d="m195.19699 196.93842c-6.091507 3.1526184 24.365997 15.761795 36.548996 15.130997c12.182999 -0.6307831 42.640488 -16.393906 36.548996 -18.915726c-6.0914917 -2.5218353 -67.006485 0.6321106 -73.09799 3.784729z" fill-rule="evenodd"></path><path stroke="#604219" stroke-width="2.0" stroke-linejoin="round" stroke-linecap="butt" d="m195.19699 196.93842c-6.091507 3.1526184 24.365997 15.761795 36.548996 15.130997c12.182999 -0.6307831 42.640488 -16.393906 36.548996 -18.915726c-6.0914917 -2.5218353 -67.006485 0.6321106 -73.09799 3.784729z" fill-rule="evenodd"></path><path fill="#ffffff" d="m229.97223 257.80173l105.165375 -57.826782l9.637787 17.574799l-105.16536 57.826782z" fill-rule="evenodd"></path><path fill="#000000" fill-opacity="0.0" d="m233.43045 268.83466l-0.50393677 64.81888" fill-rule="evenodd"></path><path stroke="#d156d7" stroke-width="2.0" stroke-linejoin="round" stroke-linecap="butt" d="m233.43045 268.83466l-0.50393677 64.81888" fill-rule="evenodd"></path><path fill="#ffffff" d="m248.8397 340.65353l-28.490433 0l0 0c-6.7136536 0 -13.152313 -2.6669617 -17.899582 -7.4142456c-4.7472687 -4.7472534 -7.414261 -11.185944 -7.414261 -17.899597l0 -81.4263c0 -3.6621094E-4 3.0517578E-4 -6.713867E-4 6.713867E-4 -6.713867E-4l79.11743 6.713867E-4l0 0c3.6621094E-4 0 6.713867E-4 2.89917E-4 6.713867E-4 6.5612793E-4l-6.713867E-4 81.425644l0 0c0 13.980469 -11.333374 25.313843 -25.313828 25.313843z" fill-rule="evenodd"></path><path fill="#9f6d2a" d="m249.9029 232.6811l-15.307098 42.488174l-15.307083 -42.488174z" fill-rule="evenodd"></path><path fill="#b7b7b7" d="m246.3178 233.03413l19.43306 5.007889l-28.97638 31.968506z" fill-rule="evenodd"></path><path stroke="#b7b7b7" stroke-width="2.0" stroke-linejoin="round" stroke-linecap="butt" d="m246.3178 233.03413l19.43306 5.007889l-28.97638 31.968506z" fill-rule="evenodd"></path><path fill="#f32550" d="m243.08398 245.5433l-8.48819 30.26773l-8.48819 -30.26773z" fill-rule="evenodd"></path><path fill="#84f245" d="m-169.74016 148.4147l0 0c0 -27.675125 27.137878 -50.110245 60.614166 -50.110245c33.476288 0 60.614174 22.43512 60.614174 50.110245l0 0c-5.276802 -24.253296 -30.806206 -41.901184 -60.614174 -41.901184c-29.807968 0 -55.33737 17.647888 -60.614166 41.901184z" fill-rule="evenodd"></path><path fill="#000000" fill-opacity="0.0" d="m234.29396 270.9738l-0.28346252 57.858246" fill-rule="evenodd"></path><path stroke="#b7b7b7" stroke-width="4.0" stroke-linejoin="round" stroke-linecap="round" d="m234.29396 270.9738l-0.28346252 57.858246" fill-rule="evenodd"></path><path fill="#efefef" d="m493.77243 96.00116l7.439148 35.451492l-10.778931 48.76216l14.0894165 1.924408l19.748016 -1.8805084l20.091187 -5.844925l10.292419 -7.425476l-29.889648 -39.773018l-8.048706 -35.89843z" fill-rule="evenodd"></path><path stroke="#999999" stroke-width="4.0" stroke-linejoin="round" stroke-linecap="butt" d="m493.77243 96.00116l7.439148 35.451492l-10.778931 48.76216l14.0894165 1.924408l19.748016 -1.8805084l20.091187 -5.844925l10.292419 -7.425476l-29.889648 -39.773018l-8.048706 -35.89843z" fill-rule="evenodd"></path><path fill="#c526dd" d="m510.42365 141.97186l-10.311493 -1.4896088l-9.679504 39.73256l14.0894165 1.924408l19.748016 -1.8805084l20.091187 -5.844925l10.292419 -7.425476l-25.55127 -32.836243l-5.975525 4.9764404z" fill-rule="evenodd"></path><path fill="#000000" fill-opacity="0.0" d="m493.70416 96.00116l7.4391785 35.451492l-10.778931 48.76216l14.0894165 1.924408l19.748016 -1.8805084l20.091187 -5.844925l10.292419 -7.425476l-29.889648 -39.773018l-8.048706 -35.89843z" fill-rule="evenodd"></path><path stroke="#666666" stroke-width="4.0" stroke-linejoin="round" stroke-linecap="butt" d="m493.70416 96.00116l7.4391785 35.451492l-10.778931 48.76216l14.0894165 1.924408l19.748016 -1.8805084l20.091187 -5.844925l10.292419 -7.425476l-29.889648 -39.773018l-8.048706 -35.89843z" fill-rule="evenodd"></path><path fill="#c526dd" d="m504.86484 134.21391l0 0c0 -2.8788452 2.4042664 -5.2126007 5.370056 -5.2126007l0 0c1.4242554 0 2.7901306 0.5491791 3.7972107 1.5267334c1.0070801 0.9775543 1.572876 2.3034058 1.572876 3.6858673l0 0c0 2.87883 -2.4042358 5.2126007 -5.3700867 5.2126007l0 0c-2.9657898 0 -5.370056 -2.3337708 -5.370056 -5.2126007z" fill-rule="evenodd"></path><path fill="#c526dd" d="m511.6821 119.68372l0 0c0 -2.261322 1.8825378 -4.0944824 4.2047424 -4.0944824l0 0c1.1151123 0 2.1846313 0.43138123 2.9731445 1.1992493c0.7885742 0.7678604 1.2315674 1.8093109 1.2315674 2.8952332l0 0c0 2.2613297 -1.8825073 4.09449 -4.204712 4.09449l0 0c-2.3222046 0 -4.2047424 -1.8331604 -4.2047424 -4.09449z" fill-rule="evenodd"></path><path fill="#c526dd" d="m500.9391 105.43964l0 0c0 -1.8003616 1.4806519 -3.2598495 3.3070984 -3.2598495l0 0c0.8771057 0 1.7182617 0.34345245 2.3384705 0.9547882c0.6201782 0.6113434 0.9686279 1.4404907 0.9686279 2.3050613l0 0c0 1.800354 -1.4806519 3.259842 -3.3070984 3.259842l0 0c-1.8264465 0 -3.3070984 -1.4594879 -3.3070984 -3.259842z" fill-rule="evenodd"></path><path fill="#9f6d2a" d="m122.44783 199.74767c-0.7617264 -2.4883118 -6.5555725 -7.886261 -10.065117 -11.103455c-3.509552 -3.2171783 -8.423103 -7.250351 -10.9921875 -8.199661c-2.5690842 -0.94932556 -4.9480057 0.41030884 -4.422333 2.5037384c0.5256729 2.0934296 4.245552 6.6192017 7.576355 10.056824c3.3308105 3.4376373 9.424622 9.44516 12.408501 10.568909c2.983879 1.123764 6.2565002 -1.3380585 5.4947815 -3.826355z" fill-rule="evenodd"></path><path fill="#9f6d2a" d="m116.97837 200.46465c-1.5832672 -2.6124573 -9.246323 -7.5571747 -13.871109 -10.494385c-4.6247864 -2.93721 -10.9472275 -6.529724 -13.877609 -7.1288757c-2.9303894 -0.5991516 -4.9191284 1.3159943 -3.7047043 3.533966c1.2144241 2.2179718 6.477585 6.562256 10.991234 9.773865c4.5136566 3.211609 12.680313 8.77652 16.090675 9.495758c3.4103622 0.7192383 5.954773 -2.5678864 4.3715134 -5.1803284z" fill-rule="evenodd"></path><path fill="#9f6d2a" d="m115.226074 203.77434c-1.9994888 -2.229721 -9.944122 -5.6946106 -14.728264 -7.7409973c-4.784149 -2.0463867 -11.229263 -4.441559 -13.976601 -4.5373383c-2.7473373 -0.09576416 -4.0892944 2.048645 -2.5074158 3.9626923c1.581871 1.9140472 7.251831 5.1960754 11.99865 7.5215607c4.746826 2.3255005 13.280022 6.299057 16.482292 6.4314117c3.2022705 0.13233948 4.7308273 -3.407608 2.7313385 -5.637329z" fill-rule="evenodd"></path><path fill="#9f6d2a" d="m116.54422 204.49474c-2.3185272 -1.5843048 -9.41539 -2.2866669 -13.673286 -2.6680298c-4.2578964 -0.38134766 -9.852226 -0.52012634 -11.874084 0.3798828c-2.0218658 0.90000916 -2.1501923 3.6112823 -0.2570877 5.020218c1.8931122 1.4089355 7.275345 2.7490845 11.61573 3.4333801c4.340393 0.6842804 12.061821 1.6999054 14.426613 0.67233276c2.3647842 -1.0275726 2.0806427 -5.2534943 -0.23788452 -6.837784z" fill-rule="evenodd"></path><path fill="#9f6d2a" d="m117.83108 194.75305l-6.944374 14.462479l21.198364 12.940186l6.9443665 -14.462479z" fill-rule="evenodd"></path><path fill="#ffffff" d="m127.09185 198.82283l78.52389 40.16121l-9.138626 17.789856l-78.5239 -40.161194z" fill-rule="evenodd"></path><path fill="#efefef" d="m-26.998417 135.90556c1.6646843 0.8229065 4.032116 1.7776184 5.772524 2.1961975c1.7404099 0.4185791 2.9959888 0.5135498 4.6699333 0.31526184c1.6739426 -0.19828796 4.6757183 -2.6654205 5.373728 -1.5049896c0.69800854 1.1604309 -0.6157112 5.0662994 -1.1856737 8.46759c-0.5699625 3.4012756 0.5940113 -2.4956512 -2.2341042 11.940109c-2.8281145 14.4357605 -10.946086 59.641724 -14.734588 74.67445c-3.7885017 15.032715 -4.969345 13.437958 -7.996422 15.521912c-3.0270767 2.0839539 -8.151993 -0.22634888 -10.1660385 -3.0181885c-2.0140457 -2.7918243 -2.9059067 -3.934967 -1.9182396 -13.732773c0.9876671 -9.797806 5.2084923 -30.706284 7.844246 -45.054077c2.6357498 -14.347794 6.243763 -32.274918 7.970272 -41.032715c1.7265072 -8.757782 1.2880516 -10.05191 2.3887806 -11.514053c1.1007271 -1.4621277 2.5508976 1.9183655 4.215582 2.741272z" fill-rule="evenodd"></path><path stroke="#666666" stroke-width="4.0" stroke-linejoin="round" stroke-linecap="butt" d="m-26.998417 135.90556c1.6646843 0.8229065 4.032116 1.7776184 5.772524 2.1961975c1.7404099 0.4185791 2.9959888 0.5135498 4.6699333 0.31526184c1.6739426 -0.19828796 4.6757183 -2.6654205 5.373728 -1.5049896c0.69800854 1.1604309 -0.6157112 5.0662994 -1.1856737 8.46759c-0.5699625 3.4012756 0.5940113 -2.4956512 -2.2341042 11.940109c-2.8281145 14.4357605 -10.946086 59.641724 -14.734588 74.67445c-3.7885017 15.032715 -4.969345 13.437958 -7.996422 15.521912c-3.0270767 2.0839539 -8.151993 -0.22634888 -10.1660385 -3.0181885c-2.0140457 -2.7918243 -2.9059067 -3.934967 -1.9182396 -13.732773c0.9876671 -9.797806 5.2084923 -30.706284 7.844246 -45.054077c2.6357498 -14.347794 6.243763 -32.274918 7.970272 -41.032715c1.7265072 -8.757782 1.2880516 -10.05191 2.3887806 -11.514053c1.1007271 -1.4621277 2.5508976 1.9183655 4.215582 2.741272z" fill-rule="evenodd"></path><path fill="#0b5394" d="m-34.796284 177.58109c1.6995964 0.636322 4.101959 1.4043427 5.848715 1.7890015c1.7467537 0.3846588 2.9927807 0.5306854 4.631813 0.51898193c1.6390324 -0.011703491 4.4340706 -1.3739319 5.2023754 -0.5892029c0.7683048 0.78474426 -0.26202965 3.1760712 -0.5925484 5.297638c-0.33051682 2.121582 0.41607666 -1.5446777 -1.3905602 7.4318085c-1.8066349 8.976486 -6.7352448 37.136993 -9.449255 46.427124c-2.7140102 9.290131 -3.9886303 8.196548 -6.8348026 9.31366c-2.8461723 1.1171265 -8.063339 -0.7001648 -10.242229 -2.6109772c-2.178894 -1.9108124 -3.1373901 -2.6977997 -2.8311195 -8.853897c0.3062706 -6.1561127 3.0460129 -19.148972 4.668747 -28.082718c1.6227341 -8.933731 3.960991 -20.074692 5.0676575 -25.519745c1.1066666 -5.4450684 0.5854759 -6.2970123 1.5723419 -7.1506195c0.9868698 -0.85362244 2.649269 1.3926239 4.3488655 2.028946z" fill-rule="evenodd"></path><path fill="#000000" fill-opacity="0.0" d="m-27.296276 137.49747c1.6646843 0.8229065 4.032116 1.7776184 5.772526 2.1961975c1.740408 0.4185791 2.995987 0.5135498 4.6699314 0.31526184c1.6739426 -0.19828796 4.6757193 -2.6654205 5.373728 -1.5049896c0.6980095 1.1604309 -0.61571026 5.0662994 -1.1856737 8.467575c-0.5699625 3.401291 0.5940113 -2.495636 -2.2341032 11.9401245c-2.8281155 14.4357605 -10.946087 59.64171 -14.734589 74.67444c-3.7885017 15.03273 -4.969345 13.437973 -7.996422 15.521927c-3.0270767 2.0839539 -8.151993 -0.22636414 -10.1660385 -3.0181885c-2.0140457 -2.7918243 -2.9059067 -3.934967 -1.9182396 -13.732773c0.9876709 -9.797821 5.2084923 -30.706284 7.844246 -45.054077c2.6357498 -14.347809 6.243763 -32.274918 7.970272 -41.032715c1.7265091 -8.757797 1.2880554 -10.051926 2.3887806 -11.514053c1.1007271 -1.4621277 2.5508976 1.9183502 4.215582 2.741272z" fill-rule="evenodd"></path><path stroke="#666666" stroke-width="4.0" stroke-linejoin="round" stroke-linecap="butt" d="m-27.296276 137.49747c1.6646843 0.8229065 4.032116 1.7776184 5.772526 2.1961975c1.740408 0.4185791 2.995987 0.5135498 4.6699314 0.31526184c1.6739426 -0.19828796 4.6757193 -2.6654205 5.373728 -1.5049896c0.6980095 1.1604309 -0.61571026 5.0662994 -1.1856737 8.467575c-0.5699625 3.401291 0.5940113 -2.495636 -2.2341032 11.9401245c-2.8281155 14.4357605 -10.946087 59.64171 -14.734589 74.67444c-3.7885017 15.03273 -4.969345 13.437973 -7.996422 15.521927c-3.0270767 2.0839539 -8.151993 -0.22636414 -10.1660385 -3.0181885c-2.0140457 -2.7918243 -2.9059067 -3.934967 -1.9182396 -13.732773c0.9876709 -9.797821 5.2084923 -30.706284 7.844246 -45.054077c2.6357498 -14.347809 6.243763 -32.274918 7.970272 -41.032715c1.7265091 -8.757797 1.2880554 -10.051926 2.3887806 -11.514053c1.1007271 -1.4621277 2.5508976 1.9183502 4.215582 2.741272z" fill-rule="evenodd"></path><path fill="#0b5394" d="m-31.45977 170.26599l0 0c0.52950287 -2.8299103 3.1156292 -4.7204742 5.7762775 -4.222687l0 0c1.277689 0.23904419 2.4020367 1.0081482 3.125698 2.1381073c0.7236614 1.1299744 0.98736 2.528244 0.73308563 3.887207l0 0c-0.52950287 2.8299103 -3.115631 4.7204742 -5.7762794 4.222702l0 0c-2.6606483 -0.49778748 -4.388283 -3.1954193 -3.8587818 -6.0253296z" fill-rule="evenodd"></path><path fill="#0b5394" d="m-25.030544 159.93149l0 0c0.3311386 -1.7697601 1.9278641 -2.9559326 3.5663872 -2.6493835l0 0c0.78684616 0.1472168 1.4782944 0.6260071 1.9222355 1.3310394c0.44394112 0.7050476 0.6040096 1.578598 0.44499207 2.4284668l0 0c-0.3311386 1.7697601 -1.927866 2.9559174 -3.5663872 2.6493683l0 0c-1.6385231 -0.30654907 -2.6983662 -1.9897308 -2.3672276 -3.759491z" fill-rule="evenodd"></path><path fill="#0b5394" d="m-33.48743 152.43967l0 0c0.41592407 -2.2228851 2.4419136 -3.7089386 4.525179 -3.319168l0 0c1.0004177 0.1871643 1.880518 0.79071045 2.4466896 1.6778717c0.56616974 0.88716125 0.7720318 1.9852753 0.57229805 3.0527344l0 0c-0.41592216 2.2229004 -2.4419136 3.7089386 -4.525179 3.3191833l0 0c-2.0832653 -0.38975525 -3.4349117 -2.507721 -3.0189877 -4.7306213z" fill-rule="evenodd"></path><path fill="#0b5394" d="m-22.06837 144.10022l0 0c0.3311386 -1.7697601 1.9278641 -2.9559326 3.5663872 -2.6493835l0 0c0.78684616 0.1472168 1.4782963 0.6260071 1.9222374 1.3310394c0.44394112 0.7050476 0.6040087 1.5785828 0.44499016 2.4284515l0 0c-0.3311386 1.7697754 -1.9278641 2.9559326 -3.5663872 2.6493835l0 0c-1.6385231 -0.30654907 -2.6983662 -1.9897308 -2.3672276 -3.759491z" fill-rule="evenodd"></path><path fill="#b7b7b7" d="m223.02625 233.34386l-19.275589 4.566925l28.0 32.12599z" fill-rule="evenodd"></path><path stroke="#b7b7b7" stroke-width="2.0" stroke-linejoin="round" stroke-linecap="butt" d="m223.02625 233.34386l-19.275589 4.566925l28.0 32.12599z" fill-rule="evenodd"></path><path fill="#efefef" d="m603.9351 34.362053l7.439209 35.451492l-10.778931 48.762154l14.089355 1.9244156l19.748047 -1.880516l20.091248 -5.8449173l10.292358 -7.4254837l-29.889648 -39.77301l-8.048706 -35.89843z" fill-rule="evenodd"></path><path stroke="#999999" stroke-width="4.0" stroke-linejoin="round" stroke-linecap="butt" d="m603.9351 34.362053l7.439209 35.451492l-10.778931 48.762154l14.089355 1.9244156l19.748047 -1.880516l20.091248 -5.8449173l10.292358 -7.4254837l-29.889648 -39.77301l-8.048706 -35.89843z" fill-rule="evenodd"></path><path fill="#29d726" d="m620.58636 80.332756l-10.311462 -1.4896164l-9.679504 39.73256l14.089355 1.9244156l19.748047 -1.880516l20.091248 -5.8449173l10.292358 -7.4254837l-25.55127 -32.836235l-5.975525 4.9764404z" fill-rule="evenodd"></path><path fill="#000000" fill-opacity="0.0" d="m603.9351 34.362053l7.439209 35.451492l-10.778931 48.762154l14.089355 1.9244156l19.748047 -1.880516l20.091248 -5.8449173l10.292358 -7.4254837l-29.889648 -39.77301l-8.048706 -35.89843z" fill-rule="evenodd"></path><path stroke="#666666" stroke-width="4.0" stroke-linejoin="round" stroke-linecap="butt" d="m603.9351 34.362053l7.439209 35.451492l-10.778931 48.762154l14.089355 1.9244156l19.748047 -1.880516l20.091248 -5.8449173l10.292358 -7.4254837l-29.889648 -39.77301l-8.048706 -35.89843z" fill-rule="evenodd"></path><path fill="#29d726" d="m615.0276 72.57481l0 0c0 -2.8788452 2.4042358 -5.2126007 5.370056 -5.2126007l0 0c1.4242554 0 2.7901 0.5491791 3.7972412 1.5267334c1.0070801 0.9775543 1.572815 2.3033981 1.572815 3.6858673l0 0c0 2.8788376 -2.4042358 5.212593 -5.370056 5.212593l0 0c-2.9658203 0 -5.370056 -2.3337555 -5.370056 -5.212593z" fill-rule="evenodd"></path><path fill="#29d726" d="m621.8448 58.04462l0 0c0 -2.2613258 1.8825684 -4.09449 4.204773 -4.09449l0 0c1.1151123 0 2.1846313 0.43138123 2.9731445 1.1992493c0.7885742 0.7678642 1.2315674 1.8093147 1.2315674 2.8952408l0 0c0 2.261322 -1.8825073 4.094486 -4.204712 4.094486l0 0c-2.3222046 0 -4.204773 -1.8331642 -4.204773 -4.094486z" fill-rule="evenodd"></path><path fill="#29d726" d="m611.1018 43.800526l0 0c0 -1.8003616 1.4806519 -3.259842 3.307129 -3.259842l0 0c0.8770752 0 1.7182617 0.34344482 2.33844 0.9547844c0.6201782 0.61133957 0.9686279 1.4404945 0.9686279 2.3050575l0 0c0 1.8003616 -1.4806519 3.259842 -3.3070679 3.259842l0 0c-1.826477 0 -3.307129 -1.4594803 -3.307129 -3.259842z" fill-rule="evenodd"></path><path fill="#291c0a" d="m182.09065 95.57436l-12.065262 -7.7776947l-2.7824402 -17.206367l6.9908447 -13.573517l12.118301 -13.389851l16.86325 -3.5092354l19.933426 0.32826614l14.389969 4.09671l10.228607 10.949013l3.3280945 11.862148l-2.2022858 10.339073l-10.173111 8.597473l-14.484665 5.803482l-19.706726 1.9499435z" fill-rule="evenodd"></path><path fill="#9f6d2a" d="m168.96863 180.54623c-9.347778 -0.75527954 -16.685013 -7.904022 -16.679886 -16.251373c0.005126953 -8.347351 7.350815 -14.958694 16.699097 -15.029694z" fill-rule="evenodd"></path><path fill="#9f6d2a" d="m291.50516 148.5236l0 0c9.79718 1.3371582 17.188202 8.960907 16.787933 17.316559c-0.40026855 8.355652 -8.450623 14.494858 -18.285492 13.944565z" fill-rule="evenodd"></path><path fill="#f32550" d="m197.84656 78.76856c2.1383057 -2.1124115 17.191467 2.2036514 18.063797 5.1792755c0.87231445 2.975624 -9.819244 13.537674 -12.82988 12.674461c-3.0106354 -0.8632126 -7.372238 -15.741325 -5.233917 -17.853737z" fill-rule="evenodd"></path><path stroke="#f32550" stroke-width="8.0" stroke-linejoin="round" stroke-linecap="butt" d="m197.84656 78.76856c2.1383057 -2.1124115 17.191467 2.2036514 18.063797 5.1792755c0.87231445 2.975624 -9.819244 13.537674 -12.82988 12.674461c-3.0106354 -0.8632126 -7.372238 -15.741325 -5.233917 -17.853737z" fill-rule="evenodd"></path><path fill="#f32550" d="m233.80934 89.55721c-2.0974426 2.1030426 -16.93129 -2.2632904 -17.800629 -5.2395935c-0.86932373 -2.9763107 9.617874 -13.491524 12.584656 -12.618256c2.9667664 0.8732605 7.3134155 15.7548065 5.215973 17.85785z" fill-rule="evenodd"></path><path stroke="#f32550" stroke-width="8.0" stroke-linejoin="round" stroke-linecap="butt" d="m233.80934 89.55721c-2.0974426 2.1030426 -16.93129 -2.2632904 -17.800629 -5.2395935c-0.86932373 -2.9763107 9.617874 -13.491524 12.584656 -12.618256c2.9667664 0.8732605 7.3134155 15.7548065 5.215973 17.85785z" fill-rule="evenodd"></path><path fill="#f32550" d="m209.17804 83.34657l0 0c-0.1404419 -0.61416626 0.24353027 -1.2261353 0.85762024 -1.36689l10.102875 -2.3155746c0.29490662 -0.067588806 0.60450745 -0.01525116 0.86073303 0.14550781c0.25621033 0.16075134 0.43803406 0.41675568 0.5054779 0.7116852l1.0171204 4.4480133c0.1404419 0.61416626 -0.24353027 1.2261429 -0.85762024 1.36689l-10.10289 2.3155746c-0.61408997 0.14074707 -1.2257538 -0.24302673 -1.3661957 -0.85718536z" fill-rule="evenodd"></path><path stroke="#f32550" stroke-width="8.0" stroke-linejoin="round" stroke-linecap="butt" d="m209.17804 83.34657l0 0c-0.1404419 -0.61416626 0.24353027 -1.2261353 0.85762024 -1.36689l10.102875 -2.3155746c0.29490662 -0.067588806 0.60450745 -0.01525116 0.86073303 0.14550781c0.25621033 0.16075134 0.43803406 0.41675568 0.5054779 0.7116852l1.0171204 4.4480133c0.1404419 0.61416626 -0.24353027 1.2261429 -0.85762024 1.36689l-10.10289 2.3155746c-0.61408997 0.14074707 -1.2257538 -0.24302673 -1.3661957 -0.85718536z" fill-rule="evenodd"></path><path fill="#f32550" d="m161.30446 174.38321l0 0c0 -1.5133514 1.2761688 -2.740158 2.8504028 -2.740158l0 0c0.7559662 0 1.4809723 0.28868103 2.0155334 0.8025665c0.5345459 0.5138855 0.8348541 1.210846 0.8348541 1.9375916l0 0c0 1.5133362 -1.2761688 2.7401428 -2.8503876 2.7401428l0 0c-1.574234 0 -2.8504028 -1.2268066 -2.8504028 -2.7401428z" fill-rule="evenodd"></path><path fill="#f32550" d="m291.33072 174.38321l0 0c0 -1.5133514 1.2761536 -2.740158 2.8503723 -2.740158l0 0c0.75598145 0 1.4809875 0.28868103 2.0155334 0.8025665c0.5345764 0.5138855 0.8348694 1.210846 0.8348694 1.9375916l0 0c0 1.5133362 -1.2761536 2.7401428 -2.8504028 2.7401428l0 0c-1.5742188 0 -2.8503723 -1.2268066 -2.8503723 -2.7401428z" fill-rule="evenodd"></path><path fill="#ffffff" fill-opacity="0.3885" d="m291.33154 155.27248c1.5727844 5.1483917 1.048523 8.409012 0 11.326523c-1.048523 2.917511 -1.3455505 4.1262054 -6.291107 6.178543c-4.945587 2.0523376 -15.180023 6.443161 -23.382355 6.135498c-8.202316 -0.3076477 -18.749603 -7.839142 -25.831589 -7.9813995c-7.08197 -0.14227295 -11.328003 5.7975616 -16.660278 7.1277924c-5.3322754 1.3302307 -9.021179 0.7113495 -15.333405 0.8536072c-6.3122253 0.14227295 -17.802933 2.2276917 -22.539948 0c-4.7369995 -2.2276764 -6.1503143 -6.8384705 -5.8820953 -13.366104c0.26820374 -6.527649 -2.577896 -20.311798 7.491394 -25.799713c10.06929 -5.487915 36.425552 -6.454712 52.92433 -7.1278076c16.49878 -0.67308044 36.81752 -0.6862335 46.068375 3.0892792c9.250824 3.7755127 7.8638916 14.415405 9.436676 19.563782z" fill-rule="evenodd"></path><path stroke="#666666" stroke-width="8.0" stroke-linejoin="round" stroke-linecap="butt" d="m291.33154 155.27248c1.5727844 5.1483917 1.048523 8.409012 0 11.326523c-1.048523 2.917511 -1.3455505 4.1262054 -6.291107 6.178543c-4.945587 2.0523376 -15.180023 6.443161 -23.382355 6.135498c-8.202316 -0.3076477 -18.749603 -7.839142 -25.831589 -7.9813995c-7.08197 -0.14227295 -11.328003 5.7975616 -16.660278 7.1277924c-5.3322754 1.3302307 -9.021179 0.7113495 -15.333405 0.8536072c-6.3122253 0.14227295 -17.802933 2.2276917 -22.539948 0c-4.7369995 -2.2276764 -6.1503143 -6.8384705 -5.8820953 -13.366104c0.26820374 -6.527649 -2.577896 -20.311798 7.491394 -25.799713c10.06929 -5.487915 36.425552 -6.454712 52.92433 -7.1278076c16.49878 -0.67308044 36.81752 -0.6862335 46.068375 3.0892792c9.250824 3.7755127 7.8638916 14.415405 9.436676 19.563782z" fill-rule="evenodd"></path><path fill="#cfe2f3" d="m-123.44882 43.41995l0 0c0 -17.055597 12.049538 -30.881891 26.913391 -30.881891l0 0c7.137871 0 13.983398 3.2536192 19.030632 9.045097c5.047241 5.791477 7.8827515 13.646406 7.8827515 21.836794l0 0c0 17.055595 -12.04953 30.881886 -26.913383 30.881886l0 0c-14.863853 0 -26.913391 -13.82629 -26.913391 -30.881886z" fill-rule="evenodd"></path><path stroke="#000000" stroke-width="1.0" stroke-linejoin="round" stroke-linecap="butt" d="m-123.44882 43.41995l0 0c0 -17.055597 12.049538 -30.881891 26.913391 -30.881891l0 0c7.137871 0 13.983398 3.2536192 19.030632 9.045097c5.047241 5.791477 7.8827515 13.646406 7.8827515 21.836794l0 0c0 17.055595 -12.04953 30.881886 -26.913383 30.881886l0 0c-14.863853 0 -26.913391 -13.82629 -26.913391 -30.881886z" fill-rule="evenodd"></path><path fill="#efefef" d="m353.29175 181.8411l0 0c5.730835 -16.330414 23.90683 -24.82103 40.59723 -18.964294l0 0c8.015015 2.8125 14.60849 8.625092 18.329987 16.159058c3.7214966 7.533966 4.2661133 16.17218 1.5140686 24.014328l0 0c-5.730835 16.330414 -23.90683 24.821014 -40.59723 18.964294l0 0c-16.6904 -5.856735 -25.57489 -23.842972 -19.844055 -40.173386z" fill-rule="evenodd"></path><path stroke="#b7b7b7" stroke-width="4.0" stroke-linejoin="round" stroke-linecap="butt" d="m353.29175 181.8411l0 0c5.730835 -16.330414 23.90683 -24.82103 40.59723 -18.964294l0 0c8.015015 2.8125 14.60849 8.625092 18.329987 16.159058c3.7214966 7.533966 4.2661133 16.17218 1.5140686 24.014328l0 0c-5.730835 16.330414 -23.90683 24.821014 -40.59723 18.964294l0 0c-16.6904 -5.856735 -25.57489 -23.842972 -19.844055 -40.173386z" fill-rule="evenodd"></path><path fill="#000000" fill-opacity="0.0" d="m358.49875 177.53333l19.151825 -11.691254l-19.970642 13.488144l23.311157 -13.358231l-24.283264 16.664764l28.35736 -15.40863l-28.04892 18.817184l31.575653 -16.53769l-32.67032 18.585114l29.810669 -14.724838" fill-rule="evenodd"></path><path stroke="#f98663" stroke-width="3.0" stroke-linejoin="round" stroke-linecap="round" d="m358.49875 177.53333l19.151825 -11.691254l-19.970642 13.488144l23.311157 -13.358231l-24.283264 16.664764l28.35736 -15.40863l-28.04892 18.817184l31.575653 -16.53769l-32.67032 18.585114l29.810669 -14.724838" fill-rule="evenodd"></path><path fill="#000000" fill-opacity="0.0" d="m408.36456 194.83641l-23.54657 -23.174591l19.70642 14.566345l-15.516327 -15.731934l19.357391 11.450638l-13.807526 -12.847488l6.810089 3.3783417" fill-rule="evenodd"></path><path stroke="#f98663" stroke-width="2.0" stroke-linejoin="round" stroke-linecap="round" d="m408.36456 194.83641l-23.54657 -23.174591l19.70642 14.566345l-15.516327 -15.731934l19.357391 11.450638l-13.807526 -12.847488l6.810089 3.3783417" fill-rule="evenodd"></path><path fill="#000000" fill-opacity="0.0" d="m407.23404 187.60773l-3.3837585 26.30275l-1.958435 -19.238052l-4.00177 22.44217l0.28805542 -14.437454" fill-rule="evenodd"></path><path stroke="#f98663" stroke-width="2.0" stroke-linejoin="round" stroke-linecap="round" d="m407.23404 187.60773l-3.3837585 26.30275l-1.958435 -19.238052l-4.00177 22.44217l0.28805542 -14.437454" fill-rule="evenodd"></path><path fill="#f98663" d="m364.9745 182.3641l0 0c0.47512817 -1.3539581 1.9486694 -2.069641 3.2912598 -1.5985413l0 0c0.64471436 0.22624207 1.1723938 0.7014923 1.466919 1.321228c0.29455566 0.6197357 0.33184814 1.3331604 0.10366821 1.9833527l0 0c-0.47512817 1.3539581 -1.9487 2.0696564 -3.2912598 1.5985413l0 0c-1.3425598 -0.4711151 -2.0457458 -1.9506226 -1.5705872 -3.3045807z" fill-rule="evenodd"></path><path fill="#f98663" d="m369.0522 168.70242l0 0c0.4751587 -1.3539581 1.9487 -2.069641 3.2912598 -1.5985413l0 0c0.64471436 0.22624207 1.1723938 0.70150757 1.4669495 1.321228c0.29452515 0.6197357 0.33181763 1.3331604 0.103637695 1.9833527l0 0c-0.47512817 1.3539581 -1.9486694 2.0696564 -3.2912292 1.5985413l0 0c-1.3425903 -0.4711151 -2.0457458 -1.9506226 -1.5706177 -3.3045807z" fill-rule="evenodd"></path><path fill="#f98663" d="m368.25858 180.53705l0 0c0.4751587 -1.3539581 1.9487 -2.069641 3.2912598 -1.598526l0 0c0.64471436 0.2262268 1.1723938 0.7014923 1.4669495 1.3212128c0.29452515 0.6197357 0.33181763 1.3331757 0.103637695 1.9833679l0 0c-0.47512817 1.3539581 -1.9486694 2.069641 -3.2912292 1.598526l0 0c-1.3425598 -0.47109985 -2.0457458 -1.9506226 -1.5706177 -3.3045807z" fill-rule="evenodd"></path><path fill="#f98663" d="m396.15356 178.2124l0 0c0.3326416 -0.9479523 1.4813843 -1.407959 2.5657654 -1.0274506l0 0c1.0843811 0.38052368 1.6937561 1.4574585 1.3611145 2.4054108l0 0c-0.33267212 0.9479523 -1.4814148 1.407959 -2.565796 1.0274506l0 0c-1.0843811 -0.38052368 -1.6937561 -1.4574585 -1.361084 -2.4054108z" fill-rule="evenodd"></path><path fill="#f98663" d="m392.11505 172.11404l0 0c0.33267212 -0.9479675 1.4814148 -1.407959 2.565796 -1.0274506l0 0c1.0843811 0.38050842 1.6937561 1.4574432 1.361084 2.4053955l0 0c-0.33267212 0.9479675 -1.4814148 1.4079742 -2.5657654 1.0274506l0 0c-1.0843811 -0.38050842 -1.6937866 -1.4574432 -1.3611145 -2.4053955z" fill-rule="evenodd"></path><path fill="#f98663" d="m396.35938 185.29459l0 0c0.293396 -0.8360596 1.2452393 -1.2632751 2.1259766 -0.9542084l0 0c0.42297363 0.14842224 0.7726135 0.4502411 0.9720764 0.8390808c0.19943237 0.38883972 0.23233032 0.83283997 0.091430664 1.2343292l0 0c-0.293396 0.8360443 -1.2452087 1.2632599 -2.1259766 0.9541931l0 0c-0.8807373 -0.3090515 -1.3569031 -1.2373505 -1.0635071 -2.0733948z" fill-rule="evenodd"></path><path fill="#f98663" d="m407.7332 199.94121l0 0c0.293396 -0.8360443 1.2452393 -1.2632599 2.126007 -0.9541931l0 0c0.42294312 0.14840698 0.7726135 0.4502411 0.9720459 0.8390808c0.19946289 0.38883972 0.23233032 0.8328247 0.09146118 1.234314l0 0c-0.293396 0.8360596 -1.2452393 1.2632599 -2.126007 0.9542084l0 0c-0.8807373 -0.30906677 -1.3568726 -1.2373657 -1.0635071 -2.07341z" fill-rule="evenodd"></path><path fill="#f98663" d="m405.30954 201.6185l0 0c0.4050598 -1.1542053 1.6124573 -1.7813873 2.6968384 -1.4008789l0 0c0.52072144 0.182724 0.9428711 0.5781555 1.1735535 1.099289c0.23068237 0.5211334 0.25100708 1.1252747 0.056488037 1.6795502l0 0c-0.4050293 1.1541901 -1.6124573 1.7813873 -2.6968384 1.4008636l0 0c-1.0843506 -0.38050842 -1.6350708 -1.6246338 -1.2300415 -2.7788239z" fill-rule="evenodd"></path><path fill="#f98663" d="m398.93375 198.08472l0 0c0.293396 -0.8360443 1.2452087 -1.2632599 2.1259766 -0.9541931l0 0c0.42294312 0.14840698 0.7726135 0.4502411 0.9720459 0.8390808c0.19946289 0.38883972 0.23236084 0.83283997 0.09146118 1.234314l0 0c-0.293396 0.8360596 -1.2452393 1.2632751 -2.1259766 0.9542084l0 0c-0.8807678 -0.30906677 -1.3569031 -1.2373505 -1.0635071 -2.07341z" fill-rule="evenodd"></path><path fill="#f98663" d="m397.5768 213.4456l0 0c0.293396 -0.8360443 1.2452393 -1.2632599 2.1259766 -0.9541931l0 0c0.42294312 0.14840698 0.7726135 0.4502411 0.9720764 0.8390808c0.19943237 0.38883972 0.23233032 0.83283997 0.091430664 1.2343292l0 0c-0.293396 0.8360443 -1.2452393 1.2632599 -2.1259766 0.9541931l0 0c-0.8807678 -0.3090515 -1.3569031 -1.2373505 -1.0635071 -2.07341z" fill-rule="evenodd"></path><path fill="#f98663" d="m396.38922 207.32857l0 0c0.293396 -0.8360443 1.2452087 -1.2632599 2.1259766 -0.9542084l0 0c0.42294312 0.14842224 0.7726135 0.45025635 0.9720459 0.8390808c0.19946289 0.38883972 0.23236084 0.83283997 0.09146118 1.2343292l0 0c-0.293396 0.8360596 -1.2452393 1.2632599 -2.1259766 0.9542084l0 0c-0.8807678 -0.30906677 -1.3569031 -1.2373657 -1.0635071 -2.07341z" fill-rule="evenodd"></path><path fill="#f98663" d="m394.02856 206.5002l0 0c0.293396 -0.8360443 1.2452087 -1.2632599 2.1259766 -0.9541931l0 0c0.42294312 0.14840698 0.7726135 0.4502411 0.9720459 0.8390808c0.19946289 0.38883972 0.23236084 0.83283997 0.09146118 1.2343292l0 0c-0.293396 0.8360443 -1.2452393 1.2632599 -2.1259766 0.9541931l0 0c-0.8807678 -0.3090515 -1.3569031 -1.2373505 -1.0635071 -2.07341z" fill-rule="evenodd"></path><path fill="#f98663" d="m391.55875 213.5381l0 0c0.293396 -0.8360443 1.2452393 -1.2632599 2.1259766 -0.9541931l0 0c0.42294312 0.14840698 0.7726135 0.4502411 0.9720764 0.8390808c0.19943237 0.38883972 0.23233032 0.83283997 0.091430664 1.2343292l0 0c-0.293396 0.8360443 -1.2452393 1.2632599 -2.1259766 0.9541931l0 0c-0.8807678 -0.3090515 -1.3569031 -1.2373505 -1.0635071 -2.07341z" fill-rule="evenodd"></path><path fill="#f98663" d="m384.2477 213.31984l0 0c0.47512817 -1.3539581 1.9486694 -2.0696564 3.2912598 -1.5985413l0 0c0.64471436 0.22624207 1.1723938 0.7014923 1.466919 1.321228c0.29455566 0.61972046 0.33184814 1.3331604 0.10366821 1.9833527l0 0c-0.47512817 1.3539581 -1.9487 2.0696564 -3.2912598 1.5985413l0 0c-1.3425598 -0.4711151 -2.0457458 -1.9506226 -1.5705872 -3.3045807z" fill-rule="evenodd"></path><path fill="#f98663" d="m378.3823 215.71532l0 0c0.293396 -0.8360596 1.2452393 -1.2632599 2.126007 -0.9542084l0 0c0.42294312 0.14842224 0.7726135 0.4502411 0.9720459 0.8390808c0.19943237 0.38883972 0.23233032 0.83283997 0.09146118 1.2343292l0 0c-0.293396 0.8360443 -1.2452393 1.2632599 -2.126007 0.9541931l0 0c-0.8807373 -0.3090515 -1.3569031 -1.2373505 -1.0635071 -2.0733948z" fill-rule="evenodd"></path><path fill="#f98663" d="m371.4102 209.86833l0 0c0.293396 -0.8360443 1.2452393 -1.2632599 2.126007 -0.9541931l0 0c0.42294312 0.14840698 0.7726135 0.4502411 0.9720459 0.8390808c0.19943237 0.38883972 0.23233032 0.83283997 0.09146118 1.2343292l0 0c-0.293396 0.8360443 -1.2452393 1.2632599 -2.126007 0.9541931l0 0c-0.8807373 -0.3090515 -1.3569031 -1.2373505 -1.0635071 -2.07341z" fill-rule="evenodd"></path><path fill="#f98663" d="m383.1175 186.80434l0 0c0.293396 -0.8360443 1.2452393 -1.2632599 2.1259766 -0.9541931l0 0c0.42297363 0.14840698 0.7726135 0.4502411 0.9720764 0.8390808c0.19943237 0.38883972 0.23233032 0.83283997 0.091430664 1.234314l0 0c-0.293396 0.8360596 -1.2452087 1.2632599 -2.1259766 0.9542084l0 0c-0.8807373 -0.30906677 -1.3569031 -1.2373505 -1.0635071 -2.07341z" fill-rule="evenodd"></path><path fill="#f98663" d="m376.22018 188.5277l0 0c0.23202515 -0.6612549 0.95407104 -1.009964 1.6127014 -0.77885437l0 0c0.31625366 0.11099243 0.5753174 0.3435669 0.7201538 0.6465912c0.14486694 0.30300903 0.16363525 0.65164185 0.05218506 0.9691925l0 0c-0.23205566 0.6612549 -0.95407104 1.0099487 -1.6127014 0.7788391l0 0c-0.65859985 -0.23110962 -1.0043945 -0.95451355 -0.77233887 -1.6157684z" fill-rule="evenodd"></path><path fill="#f98663" d="m377.43198 192.70882l0 0c0.293396 -0.8360443 1.2452393 -1.2632599 2.1259766 -0.9541931l0 0c0.42297363 0.14842224 0.7726135 0.4502411 0.9720764 0.8390808c0.19943237 0.38883972 0.23233032 0.83283997 0.091430664 1.2343292l0 0c-0.293396 0.8360443 -1.2452087 1.2632599 -2.1259766 0.9541931l0 0c-0.8807373 -0.3090515 -1.3569031 -1.2373505 -1.0635071 -2.07341z" fill-rule="evenodd"></path><path fill="#f98663" d="m365.19135 210.03333l0 0c0.4751587 -1.3539581 1.9487 -2.0696564 3.2912598 -1.5985413l0 0c0.64471436 0.22624207 1.1723938 0.7014923 1.4669495 1.321228c0.29452515 0.61972046 0.33181763 1.3331604 0.103637695 1.9833527l0 0c-0.47512817 1.3539581 -1.9486694 2.069641 -3.2912292 1.5985413l0 0c-1.3425903 -0.4711151 -2.0457458 -1.9506226 -1.5706177 -3.3045807z" fill-rule="evenodd"></path><path fill="#f98663" d="m365.46558 206.72911l0 0c0.293396 -0.8360596 1.2452087 -1.2632599 2.1259766 -0.9542084l0 0c0.42294312 0.14842224 0.7726135 0.4502411 0.9720459 0.8390808c0.19946289 0.38883972 0.23236084 0.83283997 0.09146118 1.2343292l0 0c-0.293396 0.8360443 -1.2452393 1.2632599 -2.1259766 0.9542084l0 0c-0.8807678 -0.30906677 -1.3569031 -1.2373657 -1.0635071 -2.07341z" fill-rule="evenodd"></path><path fill="#f98663" d="m381.61142 211.34152l0 0c0.29336548 -0.8360596 1.2452087 -1.2632599 2.1259766 -0.9542084l0 0c0.42294312 0.14842224 0.7726135 0.4502411 0.9720459 0.8390808c0.19946289 0.38883972 0.23233032 0.83283997 0.09146118 1.2343292l0 0c-0.293396 0.8360443 -1.2452393 1.2632599 -2.126007 0.9541931l0 0c-0.8807373 -0.3090515 -1.3568726 -1.2373505 -1.0634766 -2.0733948z" fill-rule="evenodd"></path><path fill="#f98663" d="m390.82565 215.62807l0 0c0.10223389 -0.2913208 0.41967773 -0.44517517 0.7090454 -0.3436432l0 0c0.13894653 0.04876709 0.25271606 0.15110779 0.31625366 0.28450012c0.0635376 0.1334076 0.07165527 0.28694153 0.022583008 0.42684937l0 0c-0.10223389 0.2913208 -0.41970825 0.4451599 -0.7090759 0.34362793l0 0c-0.28933716 -0.10153198 -0.44104004 -0.42001343 -0.33880615 -0.7113342z" fill-rule="evenodd"></path><path fill="#f98663" d="m386.16428 201.89603l0 0c0.293396 -0.8360443 1.2452393 -1.2632599 2.1259766 -0.9541931l0 0c0.42294312 0.14840698 0.7726135 0.4502411 0.9720764 0.8390808c0.19943237 0.38883972 0.23233032 0.83283997 0.091430664 1.234314l0 0c-0.293396 0.8360596 -1.2452393 1.2632599 -2.1259766 0.9542084l0 0c-0.8807678 -0.30906677 -1.3569031 -1.2373505 -1.0635071 -2.07341z" fill-rule="evenodd"></path><path fill="#f98663" d="m388.0874 215.72043l0 0c0.10223389 -0.2913208 0.41967773 -0.44517517 0.7090454 -0.34362793l0 0c0.13894653 0.04875183 0.25271606 0.15109253 0.31625366 0.28450012c0.0635376 0.13339233 0.07165527 0.28694153 0.02255249 0.4268341l0 0c-0.10223389 0.2913208 -0.41967773 0.44517517 -0.7090454 0.34362793l0 0c-0.28936768 -0.10153198 -0.44104004 -0.42001343 -0.33880615 -0.7113342z" fill-rule="evenodd"></path><path fill="#f98663" d="m389.84702 215.06303l0 0c0.14053345 -0.40045166 0.5924988 -0.6064606 1.009491 -0.46012878l0 0c0.20025635 0.07026672 0.36547852 0.2140503 0.4593506 0.39970398c0.09387207 0.18566895 0.10870361 0.39801025 0.041229248 0.5903168l0 0c-0.14053345 0.40045166 -0.5924988 0.60647583 -1.009491 0.46014404l0 0c-0.4169922 -0.14633179 -0.6411133 -0.5895691 -0.50057983 -0.990036z" fill-rule="evenodd"></path><path fill="#f98663" d="m381.90088 215.89676l0 0c0.10223389 -0.2913208 0.41967773 -0.44517517 0.7090454 -0.34362793l0 0c0.13894653 0.04875183 0.25271606 0.15109253 0.31625366 0.28450012c0.063568115 0.13339233 0.07165527 0.28694153 0.022583008 0.4268341l0 0c-0.10223389 0.2913208 -0.41967773 0.44517517 -0.7090454 0.34362793l0 0c-0.28936768 -0.10153198 -0.44107056 -0.42001343 -0.33883667 -0.7113342z" fill-rule="evenodd"></path><path fill="#f98663" d="m380.39166 192.87471l0 0c0.10223389 -0.2913208 0.41967773 -0.44517517 0.7090454 -0.34362793l0 0c0.13897705 0.04875183 0.25271606 0.15109253 0.31625366 0.28450012c0.063568115 0.13339233 0.07168579 0.28694153 0.022583008 0.4268341l0 0c-0.10223389 0.2913208 -0.41967773 0.44517517 -0.7090454 0.34362793l0 0c-0.28936768 -0.10153198 -0.44107056 -0.42001343 -0.33883667 -0.7113342z" fill-rule="evenodd"></path><path fill="#f98663" d="m388.62503 186.66623l0 0c0.14053345 -0.40045166 0.5924988 -0.6064606 1.009491 -0.46014404l0 0c0.20025635 0.07026672 0.36547852 0.2140503 0.4593506 0.39971924c0.09387207 0.18566895 0.10870361 0.39801025 0.041229248 0.5903168l0 0c-0.14053345 0.40045166 -0.5924988 0.6064606 -1.009491 0.46012878l0 0c-0.4169922 -0.14631653 -0.6411133 -0.5895691 -0.50057983 -0.99002075z" fill-rule="evenodd"></path><path fill="#f98663" d="m385.69907 190.3969l0 0c0.10223389 -0.2913208 0.41967773 -0.4451599 0.7090454 -0.34362793l0 0c0.13894653 0.04876709 0.25271606 0.15109253 0.31625366 0.28450012c0.0635376 0.1334076 0.07165527 0.28694153 0.02255249 0.4268341l0 0c-0.10223389 0.2913208 -0.41967773 0.44517517 -0.7090454 0.3436432l0 0c-0.28933716 -0.10154724 -0.44104004 -0.42001343 -0.33880615 -0.7113495z" fill-rule="evenodd"></path><path fill="#f98663" d="m399.59854 211.11163l0 0c0.10223389 -0.2913208 0.41967773 -0.44517517 0.7090454 -0.34362793l0 0c0.13894653 0.04875183 0.25271606 0.15109253 0.31625366 0.28450012c0.0635376 0.13339233 0.07165527 0.28694153 0.022583008 0.4268341l0 0c-0.10223389 0.2913208 -0.41970825 0.44517517 -0.7090454 0.3436432l0 0c-0.28936768 -0.10154724 -0.44107056 -0.4200287 -0.33883667 -0.7113495z" fill-rule="evenodd"></path><path fill="#f98663" d="m404.50143 210.77547l0 0c0.10223389 -0.29133606 0.41967773 -0.44517517 0.7090454 -0.3436432l0 0c0.13894653 0.04876709 0.25271606 0.15109253 0.31625366 0.28450012c0.0635376 0.1334076 0.07165527 0.28694153 0.022583008 0.4268341l0 0c-0.10223389 0.2913208 -0.41970825 0.44517517 -0.7090454 0.3436432l0 0c-0.28936768 -0.10154724 -0.44107056 -0.42001343 -0.33883667 -0.7113342z" fill-rule="evenodd"></path><path fill="#f98663" d="m364.75583 185.63327l0 0c0.10223389 -0.2913208 0.41967773 -0.44517517 0.7090454 -0.34362793l0 0c0.13894653 0.04875183 0.25271606 0.15109253 0.31625366 0.28450012c0.0635376 0.13339233 0.07165527 0.28692627 0.02255249 0.4268341l0 0c-0.10223389 0.2913208 -0.41967773 0.44517517 -0.7090454 0.34362793l0 0c-0.28933716 -0.10153198 -0.44104004 -0.42001343 -0.33880615 -0.7113342z" fill-rule="evenodd"></path><path fill="#f98663" d="m366.66116 170.38364l0 0c0.10223389 -0.2913208 0.41967773 -0.44517517 0.7090454 -0.34362793l0 0c0.13897705 0.04875183 0.25271606 0.15109253 0.31625366 0.28450012c0.063568115 0.13339233 0.07168579 0.28694153 0.022583008 0.4268341l0 0c-0.10223389 0.2913208 -0.41967773 0.44517517 -0.7090454 0.3436432l0 0c-0.28936768 -0.10154724 -0.44107056 -0.4200287 -0.33883667 -0.7113495z" fill-rule="evenodd"></path><path fill="#f98663" d="m402.77518 183.0562l0 0c0.10223389 -0.2913208 0.41970825 -0.44517517 0.7090454 -0.3436432l0 0c0.13897705 0.04876709 0.25274658 0.15110779 0.31628418 0.28450012c0.0635376 0.1334076 0.07165527 0.28694153 0.02255249 0.42684937l0 0c-0.10223389 0.2913208 -0.41967773 0.44517517 -0.7090454 0.34362793l0 0c-0.28936768 -0.10153198 -0.44107056 -0.42001343 -0.33883667 -0.7113342z" fill-rule="evenodd"></path><path fill="#f98663" d="m404.0194 175.41739l0 0c0.10223389 -0.2913208 0.41967773 -0.44517517 0.7090454 -0.34362793l0 0c0.13894653 0.04875183 0.25271606 0.15109253 0.31625366 0.28450012c0.0635376 0.13339233 0.07165527 0.28692627 0.022583008 0.4268341l0 0c-0.10223389 0.2913208 -0.41970825 0.44517517 -0.7090759 0.34362793l0 0c-0.28933716 -0.10153198 -0.44104004 -0.42001343 -0.33880615 -0.7113342z" fill-rule="evenodd"></path><path fill="#f98663" d="m371.20023 207.11299l0 0c0.10223389 -0.2913208 0.41967773 -0.44517517 0.7090454 -0.3436432l0 0c0.13894653 0.04876709 0.25271606 0.15110779 0.31625366 0.28450012c0.0635376 0.1334076 0.07165527 0.28694153 0.022583008 0.42684937l0 0c-0.10223389 0.2913208 -0.41970825 0.4451599 -0.7090454 0.34362793l0 0c-0.28936768 -0.10153198 -0.44107056 -0.42001343 -0.33883667 -0.7113342z" fill-rule="evenodd"></path><path fill="#f98663" d="m363.76108 207.18423l0 0c0.10223389 -0.29133606 0.41967773 -0.44517517 0.7090454 -0.3436432l0 0c0.13894653 0.04876709 0.25271606 0.15109253 0.31625366 0.28450012c0.0635376 0.1334076 0.07165527 0.28694153 0.022583008 0.4268341l0 0c-0.10223389 0.2913208 -0.41970825 0.44517517 -0.7090759 0.3436432l0 0c-0.28933716 -0.10154724 -0.44104004 -0.42001343 -0.33880615 -0.7113342z" fill-rule="evenodd"></path><path fill="#f98663" d="m373.56976 192.26166l0 0c0.10223389 -0.2913208 0.41967773 -0.44517517 0.7090454 -0.34362793l0 0c0.13897705 0.04875183 0.25271606 0.15109253 0.31628418 0.28450012c0.0635376 0.13339233 0.07165527 0.28692627 0.02255249 0.4268341l0 0c-0.10223389 0.2913208 -0.41967773 0.44517517 -0.7090454 0.34362793l0 0c-0.28936768 -0.10153198 -0.44107056 -0.42001343 -0.33883667 -0.7113342z" fill-rule="evenodd"></path><path fill="#f98663" d="m380.0755 206.42194l0 0c0.47512817 -1.3539581 1.9487 -2.0696564 3.2912598 -1.5985413l0 0c0.64471436 0.22624207 1.1723938 0.7014923 1.466919 1.321228c0.29455566 0.61972046 0.33184814 1.3331604 0.10366821 1.9833527l0 0c-0.47512817 1.3539581 -1.9486694 2.069641 -3.2912598 1.5985413l0 0c-1.3425598 -0.4711151 -2.0457458 -1.9506226 -1.5705872 -3.3045807z" fill-rule="evenodd"></path><path fill="#f98663" d="m370.03912 201.65811l0 0c-0.2980652 -1.4237671 0.658844 -2.7729187 2.137329 -3.0134277l0 0c0.70999146 -0.115493774 1.4477844 0.04534912 2.0510254 0.4471588c0.6032715 0.40179443 1.022583 1.0116272 1.165741 1.695343l0 0c0.2980652 1.4237823 -0.658844 2.772934 -2.137329 3.0134277l0 0c-1.4784851 0.24050903 -2.9186707 -0.71873474 -3.2167664 -2.1425018z" fill-rule="evenodd"></path><path fill="#f98663" d="m377.895 212.4752l0 0c0.4176941 -1.1902618 1.8446655 -1.7732544 3.1872253 -1.3021393l0 0c1.3425903 0.4711151 2.0923157 1.8179169 1.6746216 3.0081787l0 0c-0.4176941 1.1902618 -1.8446655 1.7732544 -3.1872253 1.3021393l0 0c-1.3425598 -0.47109985 -2.0923157 -1.8179169 -1.6746216 -3.0081787z" fill-rule="evenodd"></path><path fill="#f98663" d="m373.21072 204.0996l0 0c-0.24377441 -1.1637421 0.5152283 -2.2623749 1.695282 -2.4538574l0 0c0.5666809 -0.09194946 1.1566772 0.04185486 1.6401672 0.37199402c0.48345947 0.33015442 0.8208618 0.8295746 0.93792725 1.3884277l0 0c0.24380493 1.1637421 -0.51519775 2.2623596 -1.6952515 2.4538574l0 0c-1.1800842 0.19148254 -2.33432 -0.5966797 -2.578125 -1.7604218z" fill-rule="evenodd"></path><path fill="#f98663" d="m386.4073 204.56848l0 0c-0.24377441 -1.1637268 0.5152283 -2.2623596 1.695282 -2.4538422l0 0c0.5666809 -0.09196472 1.1566772 0.04185486 1.6401672 0.37199402c0.48349 0.33013916 0.8208618 0.8295746 0.93795776 1.3884125l0 0c0.24377441 1.1637421 -0.5152283 2.2623749 -1.695282 2.4538574l0 0c-1.1800537 0.19148254 -2.33432 -0.5966797 -2.578125 -1.7604218z" fill-rule="evenodd"></path><path fill="#f98663" d="m361.46643 198.37166l0 0c-0.24380493 -1.1637421 0.51519775 -2.2623596 1.6952515 -2.4538574l0 0c0.5666809 -0.09194946 1.1566772 0.04185486 1.6401672 0.37200928c0.48349 0.33013916 0.8208618 0.8295593 0.93795776 1.3884125l0 0c0.24377441 1.1637421 -0.5152283 2.2623749 -1.695282 2.4538574l0 0c-1.1800537 0.19148254 -2.33432 -0.5966797 -2.5780945 -1.7604218z" fill-rule="evenodd"></path><path fill="#f98663" d="m376.58932 210.1l0 0c-0.12936401 -0.61668396 0.25961304 -1.1967773 0.86880493 -1.2956696l0 0c0.2925415 -0.04748535 0.5977783 0.024612427 0.8485718 0.20043945c0.25079346 0.17582703 0.4265747 0.440979 0.4887085 0.73713684l0 0c0.12936401 0.61668396 -0.25961304 1.1967773 -0.86880493 1.2956696l0 0c-0.6091614 0.09889221 -1.2078857 -0.32087708 -1.3372803 -0.9375763z" fill-rule="evenodd"></path><path fill="#f98663" d="m364.5735 201.54842l0 0c-0.12936401 -0.61668396 0.25961304 -1.1967773 0.86880493 -1.2956696l0 0c0.2925415 -0.04748535 0.5977783 0.024612427 0.8485718 0.20043945c0.25076294 0.17582703 0.4265747 0.440979 0.4887085 0.73713684l0 0c0.12936401 0.61668396 -0.25961304 1.1967773 -0.86880493 1.2956696l0 0c-0.6091919 0.09889221 -1.2079163 -0.32087708 -1.3372803 -0.9375763z" fill-rule="evenodd"></path><path fill="#f98663" d="m370.6025 196.39798l0 0c-0.12939453 -0.6166992 0.25958252 -1.1967926 0.8687744 -1.2956696l0 0c0.2925415 -0.04750061 0.5977783 0.024612427 0.8485718 0.20043945c0.25079346 0.17582703 0.4265747 0.440979 0.4887085 0.7371216l0 0c0.12936401 0.6166992 -0.25961304 1.1967926 -0.8687744 1.2956696l0 0c-0.6091919 0.09889221 -1.2079163 -0.32087708 -1.3372803 -0.93756104z" fill-rule="evenodd"></path><path fill="#f98663" d="m381.2972 196.68454l0 0c-0.12936401 -0.6166992 0.25961304 -1.1967926 0.86880493 -1.2956696l0 0c0.2925415 -0.04750061 0.5977783 0.024612427 0.8485718 0.20043945c0.25079346 0.17582703 0.4265747 0.440979 0.4887085 0.7371216l0 0c0.12936401 0.6166992 -0.25961304 1.1967926 -0.86880493 1.2956848l0 0c-0.6091614 0.09887695 -1.2078857 -0.32087708 -1.3372803 -0.9375763z" fill-rule="evenodd"></path><path fill="#f98663" d="m376.4085 216.13048l0 0c0.10223389 -0.29133606 0.41967773 -0.44517517 0.7090454 -0.3436432l0 0c0.13894653 0.04876709 0.25271606 0.15109253 0.31625366 0.28450012c0.0635376 0.1334076 0.07165527 0.28694153 0.022583008 0.4268341l0 0c-0.10223389 0.29133606 -0.41970825 0.44517517 -0.7090454 0.3436432l0 0c-0.28936768 -0.10154724 -0.44107056 -0.42001343 -0.33883667 -0.7113342z" fill-rule="evenodd"></path><path fill="#f98663" d="m373.59076 211.77356l0 0c0.10223389 -0.2913208 0.41967773 -0.44517517 0.7090454 -0.34362793l0 0c0.13894653 0.04875183 0.25271606 0.15109253 0.31625366 0.28450012c0.0635376 0.13339233 0.07165527 0.28694153 0.022583008 0.4268341l0 0c-0.10223389 0.2913208 -0.41970825 0.44517517 -0.7090454 0.3436432l0 0c-0.28936768 -0.10154724 -0.44107056 -0.4200287 -0.33883667 -0.7113495z" fill-rule="evenodd"></path><path fill="#f98663" d="m384.54425 197.25772l0 0c0.10223389 -0.2913208 0.41967773 -0.44517517 0.7090454 -0.34362793l0 0c0.13897705 0.04875183 0.25271606 0.15109253 0.31628418 0.28450012c0.0635376 0.13339233 0.07165527 0.28694153 0.02255249 0.4268341l0 0c-0.10223389 0.2913208 -0.41967773 0.44517517 -0.7090454 0.3436432l0 0c-0.28936768 -0.10154724 -0.44107056 -0.4200287 -0.33883667 -0.7113495z" fill-rule="evenodd"></path><path fill="#f98663" d="m375.9813 216.43414l0 0c0.10223389 -0.2913208 0.41967773 -0.44517517 0.7090454 -0.3436432l0 0c0.13894653 0.04876709 0.25271606 0.15110779 0.31625366 0.28450012c0.0635376 0.1334076 0.07165527 0.28694153 0.022583008 0.42684937l0 0c-0.10223389 0.2913208 -0.41970825 0.44517517 -0.7090454 0.34362793l0 0c-0.28936768 -0.10153198 -0.44107056 -0.42001343 -0.33883667 -0.7113342z" fill-rule="evenodd"></path><path fill="#f98663" d="m363.51987 209.4468l0 0c0.10223389 -0.2913208 0.41967773 -0.44517517 0.7090454 -0.3436432l0 0c0.13894653 0.04876709 0.25271606 0.15110779 0.31625366 0.28450012c0.0635376 0.1334076 0.07165527 0.28694153 0.022583008 0.42684937l0 0c-0.10223389 0.2913208 -0.41970825 0.44517517 -0.7090454 0.34362793l0 0c-0.28936768 -0.10153198 -0.44107056 -0.42001343 -0.33883667 -0.7113342z" fill-rule="evenodd"></path><path fill="#f98663" d="m383.13455 193.8372l0 0c0.10223389 -0.29133606 0.41967773 -0.44517517 0.7090454 -0.3436432l0 0c0.13894653 0.04876709 0.25271606 0.15110779 0.31625366 0.28450012c0.0635376 0.1334076 0.07165527 0.28694153 0.02255249 0.4268341l0 0c-0.10223389 0.29133606 -0.41967773 0.44517517 -0.7090454 0.3436432l0 0c-0.28933716 -0.10153198 -0.44104004 -0.42001343 -0.33880615 -0.7113342z" fill-rule="evenodd"></path><path fill="#f98663" d="m387.6544 184.82507l0 0c0.10223389 -0.2913208 0.41967773 -0.44517517 0.7090454 -0.34362793l0 0c0.13894653 0.04875183 0.25271606 0.15109253 0.31625366 0.28450012c0.0635376 0.13339233 0.07165527 0.28694153 0.02255249 0.4268341l0 0c-0.10223389 0.2913208 -0.41967773 0.44517517 -0.7090454 0.3436432l0 0c-0.28936768 -0.10154724 -0.44104004 -0.4200287 -0.33880615 -0.7113495z" fill-rule="evenodd"></path><path fill="#f98663" d="m377.2202 186.68991l0 0c-0.2741089 -0.17304993 -0.36502075 -0.51060486 -0.20300293 -0.753952l0 0c0.07778931 -0.11685181 0.2046814 -0.19592285 0.3527527 -0.2197876c0.1481018 -0.023864746 0.30523682 0.009414673 0.43688965 0.09251404l0 0c0.2741089 0.17304993 0.36499023 0.51060486 0.20300293 0.753952l0 0c-0.1619873 0.24334717 -0.51553345 0.30033875 -0.78964233 0.12727356z" fill-rule="evenodd"></path><path fill="#f98663" d="m387.9836 208.62228l0 0c-0.12936401 -0.61668396 0.25961304 -1.1967773 0.86880493 -1.2956696l0 0c0.2925415 -0.04748535 0.5977783 0.024612427 0.8485718 0.20043945c0.25079346 0.17582703 0.4265747 0.440979 0.4887085 0.7371216l0 0c0.12936401 0.6166992 -0.25961304 1.1967926 -0.86880493 1.2956848l0 0c-0.6091919 0.09889221 -1.2079163 -0.32087708 -1.3372803 -0.9375763z" fill-rule="evenodd"></path><path fill="#f98663" d="m364.26712 171.39267l0 0c0.293396 -0.8360443 1.2452393 -1.2632599 2.1259766 -0.9541931l0 0c0.42297363 0.14840698 0.7726135 0.4502411 0.9720764 0.8390808c0.19943237 0.38883972 0.23233032 0.83283997 0.091430664 1.234314l0 0c-0.293396 0.8360596 -1.2452087 1.2632599 -2.1259766 0.9542084l0 0c-0.8807678 -0.30906677 -1.3569031 -1.2373505 -1.0635071 -2.07341z" fill-rule="evenodd"></path><path fill="#f3f3f3" d="m113.949715 149.75084c1.2189407 0.8593292 2.9807816 1.9003448 4.313202 2.427719c1.3324203 0.52737427 2.3208542 0.733963 3.6813126 0.736496c1.360466 0.0025177002 4.0774536 -1.76651 4.4814606 -0.7213135c0.40400696 1.0451813 -1.1563034 4.1931458 -2.057434 6.9924164c-0.9011307 2.7992706 0.8013382 -2.0361633 -3.3493423 9.803223c-4.1506805 11.839386 -16.560059 48.98932 -21.554749 61.23311c-4.9946823 12.24379 -5.7265396 10.785034 -8.413368 12.22966c-2.6868286 1.4446259 -6.468788 -1.0135193 -7.707611 -3.5618896c-1.2388153 -2.5483704 -1.7996216 -3.5986176 0.27469635 -11.728348c2.074318 -8.129715 8.18544 -25.26506 12.1712265 -37.050003c3.9857788 -11.784927 9.216774 -26.478043 11.743469 -33.659607c2.5266876 -7.181549 2.3471527 -8.31282 3.4166794 -9.429733c1.069519 -1.1168976 1.7815094 1.8689423 3.0004578 2.7282715z" fill-rule="evenodd"></path><path stroke="#666666" stroke-width="3.0" stroke-linejoin="round" stroke-linecap="butt" d="m113.949715 149.75084c1.2189407 0.8593292 2.9807816 1.9003448 4.313202 2.427719c1.3324203 0.52737427 2.3208542 0.733963 3.6813126 0.736496c1.360466 0.0025177002 4.0774536 -1.76651 4.4814606 -0.7213135c0.40400696 1.0451813 -1.1563034 4.1931458 -2.057434 6.9924164c-0.9011307 2.7992706 0.8013382 -2.0361633 -3.3493423 9.803223c-4.1506805 11.839386 -16.560059 48.98932 -21.554749 61.23311c-4.9946823 12.24379 -5.7265396 10.785034 -8.413368 12.22966c-2.6868286 1.4446259 -6.468788 -1.0135193 -7.707611 -3.5618896c-1.2388153 -2.5483704 -1.7996216 -3.5986176 0.27469635 -11.728348c2.074318 -8.129715 8.18544 -25.26506 12.1712265 -37.050003c3.9857788 -11.784927 9.216774 -26.478043 11.743469 -33.659607c2.5266876 -7.181549 2.3471527 -8.31282 3.4166794 -9.429733c1.069519 -1.1168976 1.7815094 1.8689423 3.0004578 2.7282715z" fill-rule="evenodd"></path><path fill="#ffe599" d="m100.8772 200.51071c2.0444336 -1.953659 3.9561844 -4.0331573 6.166382 -6.215271c2.210205 -2.182129 6.3903046 -7.559082 7.0948486 -6.8774414c0.70454407 0.6816406 -2.078621 8.229065 -2.867569 10.96727c-0.78894806 2.7381897 -1.3063049 3.8234406 -1.8660965 5.461899c-0.55979156 1.6384583 0.4663391 -0.911499 -1.4926529 4.3688507c-1.958992 5.2803497 -7.439186 21.572495 -10.261314 27.313263c-2.822136 5.740753 -4.255844 6.480484 -6.671486 7.131302c-2.4156418 0.65083313 -6.3362427 -1.4014282 -7.822357 -3.2263489c-1.4861145 -1.8249359 -1.6633301 -3.9279327 -1.0943375 -7.7232513c0.568985 -3.7953339 3.4569092 -11.748367 4.5082703 -15.048706c1.0513687 -3.3003387 0.43222046 -2.9791718 1.7999039 -4.753311c1.367691 -1.7741547 4.321823 -3.991867 6.406227 -5.891571c2.0843964 -1.899704 4.0557556 -3.5530243 6.1001816 -5.5066833z" fill-rule="evenodd"></path><path fill="#c27ba0" d="m100.53471 203.15997l0 0c1.5419388 -0.73080444 3.0182114 0.31713867 3.2973557 2.340622l0 0c0.27913666 2.0234985 -0.74456024 4.2562866 -2.286499 4.987091l0 0c-1.5419388 0.7307892 -3.0182114 -0.31713867 -3.297348 -2.3406372l0 0c-0.2791443 -2.0234833 0.7445526 -4.2562866 2.2864914 -4.987076z" fill-rule="evenodd"></path><path fill="#c27ba0" d="m98.29493 207.08032l0 0c1.5419312 -0.7307892 3.0182114 0.31713867 3.297348 2.3406372l0 0c0.2791443 2.0234833 -0.7445526 4.2562714 -2.2864914 4.987076l0 0c-1.5419388 0.73080444 -3.0182114 -0.31713867 -3.2973557 -2.340622l0 0c-0.27913666 -2.0234985 0.74456024 -4.2562866 2.286499 -4.987091z" fill-rule="evenodd"></path><path fill="#c27ba0" d="m101.55485 208.9153l0 0c0.88523865 -0.14703369 1.6345062 0.70140076 1.6735382 1.8950195l0 0c0.039024353 1.193634 -0.64697266 2.2804565 -1.5322189 2.4274902l0 0c-0.8852463 0.14703369 -1.6345139 -0.70140076 -1.6735382 -1.8950195l0 0c-0.039024353 -1.193634 0.64697266 -2.2804565 1.5322189 -2.4274902z" fill-rule="evenodd"></path><path fill="#c27ba0" d="m95.89251 207.1719l0 0c0.71868134 -0.34062195 1.4225388 0.26223755 1.5721207 1.3465271l0 0c0.14957428 1.0842896 -0.3117752 2.2393951 -1.0304565 2.580017l0 0c-0.71868134 0.34062195 -1.4225388 -0.26223755 -1.5721207 -1.3465271l0 0c-0.14957428 -1.0842896 0.3117752 -2.2393951 1.0304565 -2.580017z" fill-rule="evenodd"></path><path fill="#c27ba0" d="m91.67801 210.33331l0 0c0.5502167 -1.6104279 2.0401688 -2.5671234 3.3279114 -2.1368408l0 0c0.6184006 0.20661926 1.1064987 0.71199036 1.3569412 1.4049377c0.25043488 0.6929474 0.24269867 1.5167084 -0.021530151 2.2900696l0 0c-0.55020905 1.6104126 -2.0401688 2.5671234 -3.3279037 2.1368408l0 0c-1.2877426 -0.43026733 -1.8856277 -2.0845795 -1.3354187 -3.6950073z" fill-rule="evenodd"></path><path fill="#c27ba0" d="m106.59196 204.36177l0 0c-0.23423004 1.0747986 -1.1350021 1.8712921 -2.0119324 1.779007l0 0c-0.4211197 -0.044311523 -0.78030396 -0.29185486 -0.9985428 -0.6881561c-0.21823883 -0.39631653 -0.27764893 -0.9089203 -0.16516876 -1.4250641l0 0c0.23423767 -1.0748138 1.1350098 -1.8712921 2.01194 -1.779007l0 0c0.87693024 0.092285156 1.397934 1.0384064 1.1637039 2.1132202z" fill-rule="evenodd"></path><path fill="#c27ba0" d="m105.82552 202.4201l0 0c-0.23423004 1.0748138 -1.1350021 1.8713074 -2.0119324 1.779007l0 0c-0.4211197 -0.044311523 -0.78030396 -0.29185486 -0.99853516 -0.6881561c-0.21823883 -0.39630127 -0.27765656 -0.9089203 -0.16516876 -1.4250488l0 0c0.23423004 -1.0748138 1.1350021 -1.8713074 2.0119324 -1.7790222l0 0c0.87693024 0.092285156 1.3979416 1.0384064 1.1637039 2.1132202z" fill-rule="evenodd"></path><path fill="#c27ba0" d="m104.02189 204.24268l0 0c-0.23997498 0.5807953 -0.8196945 0.94291687 -1.2948456 0.80882263l0 0c-0.22817993 -0.06439209 -0.40122986 -0.23693848 -0.48108673 -0.47969055c-0.07985687 -0.24275208 -0.0599823 -0.5358124 0.055252075 -0.8147278l0 0c0.23997498 -0.5807953 0.8196945 -0.94291687 1.2948456 -0.80882263l0 0c0.47515106 0.13407898 0.66580963 0.71362305 0.42583466 1.2944183z" fill-rule="evenodd"></path><path fill="#c27ba0" d="m106.595795 200.88483l0 0c-0.109176636 0.50094604 -0.57860565 0.8669739 -1.0485077 0.81752014l0 0c-0.2256546 -0.023757935 -0.42124176 -0.14208984 -0.5437317 -0.32899475c-0.12248993 -0.1869049 -0.1618576 -0.42704773 -0.109428406 -0.6676178l0 0c0.109176636 -0.5009613 0.57860565 -0.8669739 1.0485077 -0.81752014l0 0c0.46990204 0.049453735 0.7623291 0.49565125 0.6531601 0.99661255z" fill-rule="evenodd"></path><path fill="#c27ba0" d="m92.6691 210.56023l0 0c1.1515656 -0.5458679 2.2317657 0.07481384 2.4126816 1.386322l0 0c0.086883545 0.6298065 -0.049476624 1.3379517 -0.3790741 1.9686584c-0.32959747 0.6306915 -0.82543945 1.1322784 -1.3784409 1.3944092l0 0c-1.1515732 0.54585266 -2.2317657 -0.0748291 -2.4126892 -1.3863373l0 0c-0.18091583 -1.3115082 0.6059494 -2.8171997 1.7575226 -3.3630524z" fill-rule="evenodd"></path><path fill="#c27ba0" d="m90.95981 213.22337l0 0c1.1515732 -0.5458679 2.2317657 0.07481384 2.4126892 1.386322l0 0c0.086883545 0.6298218 -0.049476624 1.3379669 -0.3790741 1.9686584c-0.32959747 0.6306915 -0.82543945 1.1322784 -1.3784409 1.3944092l0 0c-1.1515732 0.54585266 -2.2317657 -0.0748291 -2.4126892 -1.3863373l0 0c-0.18091583 -1.3115082 0.6059494 -2.8171997 1.757515 -3.3630524z" fill-rule="evenodd"></path><path fill="#c27ba0" d="m93.35123 214.28055l0 0c0.6576538 -0.13510132 1.2018433 0.38702393 1.2154999 1.1661835l0 0c0.013656616 0.77915955 -0.5084076 1.5203094 -1.1660538 1.6554108l0 0c-0.6576462 0.13508606 -1.2018433 -0.38702393 -1.2154922 -1.1661835l0 0c-0.013656616 -0.77915955 0.50839996 -1.5203094 1.1660461 -1.6554108z" fill-rule="evenodd"></path><path fill="#c27ba0" d="m89.178986 213.38887l0 0c0.53673553 -0.25442505 1.0504303 0.10903931 1.147377 0.81181335l0 0c0.09694672 0.7027588 -0.25956726 1.478714 -0.7963028 1.733139l0 0c-0.53673553 0.25442505 -1.0504379 -0.10903931 -1.1473846 -0.81181335l0 0c-0.09694672 -0.70277405 0.2595749 -1.4787292 0.7963104 -1.733139z" fill-rule="evenodd"></path><path fill="#c27ba0" d="m86.96283 218.18199l0 0c0.37696075 -1.1033325 1.3382645 -1.7786713 2.1471252 -1.5084076l0 0c0.38843536 0.12979126 0.68904114 0.46473694 0.835701 0.9311676c0.14665985 0.4664154 0.12734985 1.026123 -0.05367279 1.555954l0 0c-0.37696075 1.1033325 -1.3382645 1.7786713 -2.1471252 1.5084076l0 0c-0.8088684 -0.27026367 -1.158989 -1.3837891 -0.7820282 -2.4871216z" fill-rule="evenodd"></path><path fill="#c27ba0" d="m105.46493 197.68605l0 0c0.3027115 -0.88601685 1.0733261 -1.428772 1.7212219 -1.2122955l0 0c0.31113434 0.10395813 0.5517731 0.37268066 0.66898346 0.74705505c0.11721039 0.37435913 0.10139465 0.8237152 -0.04397583 1.2491913l0 0c-0.3027115 0.88601685 -1.0733337 1.428772 -1.7212219 1.2122955l0 0c-0.6478958 -0.2164917 -0.92772675 -1.1102295 -0.6250076 -1.9962463z" fill-rule="evenodd"></path><path fill="#c27ba0" d="m107.07329 199.37033l0 0c0.37696075 -1.1033325 1.3382645 -1.7786713 2.1471252 -1.5084076l0 0c0.38842773 0.12979126 0.68904114 0.46473694 0.835701 0.9311676c0.14665222 0.4664154 0.12734985 1.026123 -0.05367279 1.555954l0 0c-0.37696838 1.1033325 -1.3382645 1.7786713 -2.1471252 1.5084076l0 0c-0.8088684 -0.27026367 -1.158989 -1.3837891 -0.7820282 -2.4871216z" fill-rule="evenodd"></path><path fill="#c27ba0" d="m107.68525 196.0822l0 0c0.30271912 -0.88601685 1.0733337 -1.428772 1.7212296 -1.2122955l0 0c0.31113434 0.10395813 0.5517731 0.37268066 0.66898346 0.74705505c0.11721039 0.37435913 0.10139465 0.8237152 -0.04397583 1.2491913l0 0c-0.3027115 0.8860016 -1.0733337 1.428772 -1.7212219 1.2122803l0 0c-0.6478958 -0.21647644 -0.92772675 -1.1102295 -0.62501526 -1.9962311z" fill-rule="evenodd"></path><path fill="#c27ba0" d="m109.80534 194.05888l0 0c0.15991974 -0.4680786 0.5766449 -0.75161743 0.9307709 -0.6332855l0 0c0.1700592 0.05682373 0.30265045 0.2006073 0.3685913 0.3997345c0.06594849 0.1991272 0.0598526 0.43727112 -0.016944885 0.66204834l0 0c-0.15992737 0.4680786 -0.5766525 0.75161743 -0.9307785 0.6332855l0 0c-0.35412598 -0.11831665 -0.51156616 -0.5937042 -0.3516388 -1.0617828z" fill-rule="evenodd"></path><path fill="#c27ba0" d="m103.79839 209.19327l0 0c0.15991974 -0.4680786 0.5766449 -0.75161743 0.9307709 -0.6332855l0 0c0.1700592 0.05680847 0.30264282 0.2006073 0.3685913 0.3997345c0.06594849 0.19911194 0.05984497 0.43725586 -0.016952515 0.66204834l0 0c-0.15991974 0.4680786 -0.5766449 0.7516022 -0.9307709 0.6332855l0 0c-0.35412598 -0.11833191 -0.51156616 -0.5937042 -0.3516388 -1.0617828z" fill-rule="evenodd"></path><path fill="#c27ba0" d="m94.93297 214.36618l0 0c0.15991974 -0.4680786 0.5766449 -0.75161743 0.9307709 -0.6332855l0 0c0.1700592 0.05682373 0.30265045 0.2006073 0.3685913 0.3997345c0.06594849 0.1991272 0.0598526 0.43727112 -0.016944885 0.66204834l0 0c-0.15992737 0.4680786 -0.5766525 0.75161743 -0.9307785 0.6332855l0 0c-0.35412598 -0.11831665 -0.51156616 -0.5937042 -0.3516388 -1.0617828z" fill-rule="evenodd"></path><path fill="#c27ba0" d="m95.38858 213.03265l0 0c0.15991974 -0.4680786 0.7103958 -0.70692444 1.2295151 -0.5334625l0 0c0.51911926 0.17344666 0.81031036 0.69351196 0.650383 1.1616058l0 0c-0.15991974 0.4680786 -0.7103958 0.70692444 -1.2295151 0.5334625l0 0c-0.5191269 -0.17344666 -0.81031036 -0.6935272 -0.650383 -1.1616058z" fill-rule="evenodd"></path><path fill="#c27ba0" d="m98.83507 214.18423l0 0c0.15991974 -0.4680786 0.5766449 -0.75161743 0.9307709 -0.6332855l0 0c0.1700592 0.05682373 0.30264282 0.2006073 0.3685913 0.3997345c0.06594086 0.1991272 0.05984497 0.43727112 -0.016952515 0.66204834l0 0c-0.15991974 0.4680786 -0.5766449 0.75161743 -0.9307709 0.6332855l0 0c-0.3541336 -0.11831665 -0.51156616 -0.5937042 -0.3516388 -1.0617828z" fill-rule="evenodd"></path><path fill="#c27ba0" d="m89.745895 218.67348l0 0c0.15992737 -0.4680786 0.5766449 -0.75161743 0.9307709 -0.6332855l0 0c0.1700592 0.05682373 0.30265045 0.2006073 0.3685913 0.3997345c0.06594849 0.19911194 0.0598526 0.43727112 -0.016944885 0.66204834l0 0c-0.15992737 0.4680786 -0.5766449 0.75161743 -0.9307785 0.6332855l0 0c-0.35412598 -0.11831665 -0.51155853 -0.5937042 -0.3516388 -1.0617828z" fill-rule="evenodd"></path><path fill="#c27ba0" d="m87.83896 220.0729l0 0c0.15991974 -0.4680786 0.5766449 -0.75161743 0.9307709 -0.6332855l0 0c0.1700592 0.05680847 0.30265045 0.2006073 0.3685913 0.3997345c0.06594849 0.19911194 0.0598526 0.43725586 -0.016944885 0.66204834l0 0c-0.15992737 0.4680786 -0.5766449 0.7516022 -0.9307785 0.6332855l0 0c-0.35412598 -0.11833191 -0.51155853 -0.5937042 -0.3516388 -1.0617828z" fill-rule="evenodd"></path><path fill="#c27ba0" d="m85.603905 219.9219l0 0c0.15992737 -0.4680786 0.5766449 -0.75161743 0.9307785 -0.6332855l0 0c0.1700592 0.05682373 0.30264282 0.2006073 0.3685913 0.3997345c0.06594086 0.19911194 0.05984497 0.43727112 -0.016952515 0.66204834l0 0c-0.15992737 0.4680786 -0.5766449 0.75161743 -0.9307709 0.6332855l0 0c-0.3541336 -0.11833191 -0.51156616 -0.5937042 -0.35164642 -1.0617828z" fill-rule="evenodd"></path><path fill="#000000" fill-opacity="0.0" d="m95.11667 201.73413l-0.7350311 1.9016724l1.3245087 1.3965302l2.098816 -1.4575806l0.74972534 -2.2818909l-0.5208359 -1.4594116l-1.3254395 0.37928772z" fill-rule="evenodd"></path><path stroke="#666666" stroke-width="2.0" stroke-linejoin="round" stroke-linecap="round" d="m95.11667 201.73413l-0.7350311 1.9016724l1.3245087 1.3965302l2.098816 -1.4575806l0.74972534 -2.2818909l-0.5208359 -1.4594116l-1.3254395 0.37928772z" fill-rule="evenodd"></path><path fill="#cfe2f3" d="m97.736565 199.7798l40.65986 -66.71222" fill-rule="evenodd"></path><path stroke="#666666" stroke-width="2.0" stroke-linejoin="round" stroke-linecap="round" d="m97.736565 199.7798l40.65986 -66.71222" fill-rule="evenodd"></path><path fill="#000000" fill-opacity="0.0" d="m113.95254 150.82574c1.2193451 0.8596802 2.98172 1.9011688 4.3144836 2.4288483c1.332756 0.52767944 2.3213959 0.7344513 3.6820679 0.7371979c1.360672 0.0027313232 4.077629 -1.7662201 4.481964 -0.72076416c0.40433502 1.0454559 -1.1554108 4.1937866 -2.0559616 6.9934845c-0.9005585 2.7996826 0.80094147 -2.0364532 -3.3473587 9.804626c-4.1483 11.84108 -16.550102 48.99643 -21.542435 61.241867c-4.9923325 12.245438 -5.7246704 10.78627 -8.411545 12.230774c-2.6868744 1.4445038 -6.4700394 -1.0147095 -7.7097015 -3.5637665c-1.2396545 -2.5490723 -1.8008194 -3.5996094 0.27174377 -11.730606c2.0725632 -8.131012 8.180252 -25.268799 12.163643 -37.055435c3.9833832 -11.786652 9.211433 -26.481857 11.736679 -33.66443c2.5252457 -7.1825867 2.345398 -8.314102 3.4148026 -9.431076c1.0694046 -1.1169586 1.7822647 1.8695831 3.0016174 2.7292786z" fill-rule="evenodd"></path><path stroke="#666666" stroke-width="3.0" stroke-linejoin="round" stroke-linecap="butt" d="m113.95254 150.82574c1.2193451 0.8596802 2.98172 1.9011688 4.3144836 2.4288483c1.332756 0.52767944 2.3213959 0.7344513 3.6820679 0.7371979c1.360672 0.0027313232 4.077629 -1.7662201 4.481964 -0.72076416c0.40433502 1.0454559 -1.1554108 4.1937866 -2.0559616 6.9934845c-0.9005585 2.7996826 0.80094147 -2.0364532 -3.3473587 9.804626c-4.1483 11.84108 -16.550102 48.99643 -21.542435 61.241867c-4.9923325 12.245438 -5.7246704 10.78627 -8.411545 12.230774c-2.6868744 1.4445038 -6.4700394 -1.0147095 -7.7097015 -3.5637665c-1.2396545 -2.5490723 -1.8008194 -3.5996094 0.27174377 -11.730606c2.0725632 -8.131012 8.180252 -25.268799 12.163643 -37.055435c3.9833832 -11.786652 9.211433 -26.481857 11.736679 -33.66443c2.5252457 -7.1825867 2.345398 -8.314102 3.4148026 -9.431076c1.0694046 -1.1169586 1.7822647 1.8695831 3.0016174 2.7292786z" fill-rule="evenodd"></path><path fill="#9f6d2a" d="m121.79374 207.57373c1.1417236 -1.72052 0.18386841 -8.240997 -0.43379974 -12.165207c-0.6176758 -3.9241943 -1.8181763 -9.189636 -3.2722244 -11.379974c-1.4540558 -2.1903229 -4.396019 -3.1319733 -5.45208 -1.7620239c-1.0560608 1.3699646 -1.1966095 6.070877 -0.884285 9.981735c0.31232452 3.9108582 1.0845032 10.929153 2.758232 13.483398c1.6737366 2.554245 6.142433 3.5625916 7.284157 1.8420715z" fill-rule="evenodd"></path></g></svg>

