<?xml version="1.0" encoding="UTF-8" standalone="no"?>
<!-- Created with Inkscape (http://www.inkscape.org/) -->

<svg
   xmlns:dc="http://purl.org/dc/elements/1.1/"
   xmlns:cc="http://creativecommons.org/ns#"
   xmlns:rdf="http://www.w3.org/1999/02/22-rdf-syntax-ns#"
   xmlns:svg="http://www.w3.org/2000/svg"
   xmlns="http://www.w3.org/2000/svg"
   xmlns:sodipodi="http://sodipodi.sourceforge.net/DTD/sodipodi-0.dtd"
   xmlns:inkscape="http://www.inkscape.org/namespaces/inkscape"
   id="svg4136"
   version="1.1"
   inkscape:version="0.91 r13725"
   width="576.5625"
   height="750"
   viewBox="0 0 576.5625 750"
   sodipodi:docname="scientist.svg">
  <metadata
     id="metadata4142">
    <rdf:RDF>
      <cc:Work
         rdf:about="">
        <dc:format>image/svg+xml</dc:format>
        <dc:type
           rdf:resource="http://purl.org/dc/dcmitype/StillImage" />
        <dc:title></dc:title>
      </cc:Work>
    </rdf:RDF>
  </metadata>
  <defs
     id="defs4140" />
  <sodipodi:namedview
     pagecolor="#ffffff"
     bordercolor="#666666"
     borderopacity="1"
     objecttolerance="10"
     gridtolerance="10"
     guidetolerance="10"
     inkscape:pageopacity="0"
     inkscape:pageshadow="2"
     inkscape:window-width="1366"
     inkscape:window-height="706"
     id="namedview4138"
     showgrid="false"
     inkscape:zoom="0.74"
     inkscape:cx="456.6714"
     inkscape:cy="392.86271"
     inkscape:window-x="-8"
     inkscape:window-y="-8"
     inkscape:window-maximized="1"
     inkscape:current-layer="svg4136" />
  <g
     id="g4233"
     transform="matrix(1.2940911,0,0,1.2940911,-65.854972,-85.536511)">
    <path
       inkscape:connector-curvature="0"
       id="path4211"
       d="m 274.32432,570.94595 4.72973,22.97297 48.64865,-1.35135 -2.02702,-31.08108 z"
       style="fill:#00aad4;fill-rule:evenodd;stroke:#000000;stroke-width:4;stroke-linecap:butt;stroke-linejoin:miter;stroke-miterlimit:4;stroke-dasharray:none;stroke-opacity:1" />
    <path
       inkscape:connector-curvature="0"
       id="path4180"
       d="m 179.72973,266.89189 -24.32432,32.43243 -13.51352,35.81081 -15.54054,46.62163 -4.05405,14.86486 19.59459,10.81081 21.62162,4.72973 9.45946,-0.67567 3.37838,-33.10811 5.40541,-17.56757 12.16216,-12.16216 -10.81081,12.83784 -6.75676,28.37837 -2.7027,22.97298 -8.10811,2.02702 9.45946,-0.67567 -8.78378,144.59459 80.4054,12.16217 11.48649,4.05405 13.51351,-189.18919 -8.78378,181.75676 20.94594,2.7027 8.78379,-8.10811 8.78378,8.10811 L 350,566.89189 364.18919,556.75676 375,558.78378 l 8.78378,-12.16216 -6.75675,-47.97297 -4.72973,-34.45946 -3.37838,-39.86487 0.67567,-10.13513 -6.08108,-9.45946 -4.72973,-17.56757 -6.75675,-18.24324 -3.37838,-16.89189 18.91892,60.81081 19.59459,-4.05406 25,-8.1081 8.10811,-10.81082 L 410.13514,360.81081 407.43243,350 l -5.4054,-18.24324 -16.89189,-18.91892 -14.18919,-28.37838 -14.86487,-19.5946 -5.4054,-4.05405 z"
       style="fill:#ffffff;fill-rule:evenodd;stroke:#000000;stroke-width:4;stroke-linecap:butt;stroke-linejoin:miter;stroke-miterlimit:4;stroke-dasharray:none;stroke-opacity:1" />
    <path
       inkscape:connector-curvature="0"
       id="path4231"
       d="m 237.93188,288.46949 -1.9111,70.71068 25.79984,22.93319 43.95529,-41.08863 -1.9111,-57.33299 -36.31089,-4.77774 -25.79984,9.55549 z"
       style="fill:#cccccc;fill-rule:evenodd;stroke:#000000;stroke-width:1px;stroke-linecap:butt;stroke-linejoin:miter;stroke-opacity:1" />
    <path
       inkscape:connector-curvature="0"
       id="path4162"
       d="m 329.72973,181.08108 c 1.79022,8.03022 6.84861,14.3553 12.10196,20.23453 1.68593,9.36364 -0.15217,19.05311 3.02357,28.18655 -2.49718,10.38411 -10.05049,18.86079 -14.8651,28.28387 -7.35392,9.7112 -20.5346,8.44907 -31.24094,10.63411 -13.3688,1.74262 -25.92062,7.68516 -39.49556,8.12886 -7.63321,-0.65542 -14.99397,-3.29372 -22.29791,-5.54431 -16.30139,-5.57783 -30.19024,-16.15702 -43.34945,-26.97319 -6.10851,-3.63464 -8.9811,-10.07041 -2.49894,-15.3964 4.57568,-5.82169 -1.14737,-0.98297 -3.11256,1.11968 -4.17148,5.00724 -11.42601,-1.89475 -13.21557,-6.31616 -3.26671,-5.69398 -3.27221,-12.11502 -1.17874,-18.20509 -1.22366,-8.02888 13.08219,-1.72003 11.22338,-9.91756 1.00466,-11.05127 2.00932,-22.10254 3.01398,-33.15381 12.97116,-6.35145 25.57675,-13.86522 39.81859,-17.0559 8.12353,-2.4228 16.24707,-4.84561 24.3706,-7.26842 15.66234,2.38043 31.39007,4.32886 47.0114,6.97763 8.73192,5.48307 19.22095,9.01075 25.51641,17.60602 1.96615,2.9187 6.29676,4.93844 5.17489,9.03121 0,3.20946 1e-5,6.41892 -10e-6,9.62838 z"
       style="fill:#f2e2a7;fill-opacity:1;fill-rule:evenodd;stroke:#000000;stroke-width:4;stroke-linecap:butt;stroke-linejoin:miter;stroke-miterlimit:4;stroke-dasharray:none;stroke-opacity:1" />
    <path
       sodipodi:nodetypes="sssss"
       inkscape:connector-curvature="0"
       id="path4146"
       d="m 258.10811,191.89189 c 0,12.68763 -8.92406,22.97298 -19.93244,22.97297 -11.00838,0 -21.28378,-4.87995 -21.28378,-17.56757 0,-12.68762 10.2754,-31.75675 21.28378,-31.75675 11.00838,0 19.93244,13.66372 19.93244,26.35135 z"
       style="opacity:1;fill:#ffffff;fill-opacity:1;fill-rule:nonzero;stroke:#000000;stroke-width:4;stroke-miterlimit:4;stroke-dasharray:none;stroke-dashoffset:0;stroke-opacity:1" />
    <path
       style="opacity:1;fill:#ffffff;fill-opacity:1;fill-rule:nonzero;stroke:#000000;stroke-width:4;stroke-miterlimit:4;stroke-dasharray:none;stroke-dashoffset:0;stroke-opacity:1"
       d="m 310.92223,190.85361 c -1.30285,9.87856 -6.2696,19.39294 -17.3375,19.39293 -11.06789,0 -15.99344,-7.88646 -15.99344,-17.85055 0,-9.96409 7.90677,-29.36966 17.34479,-23.58848 3.90041,2.38916 18.01318,6.6766 15.98615,22.0461 z"
       id="path4149"
       inkscape:connector-curvature="0"
       sodipodi:nodetypes="sssss" />
    <path
       sodipodi:nodetypes="ssssss"
       inkscape:connector-curvature="0"
       id="path4151"
       d="m 291.89189,224.66216 c 0.81344,3.60897 -4.49733,5.66192 -17.90541,5.74324 -20.91029,0.12682 -19.48988,-2.07846 -17.9054,-5.74324 1.84129,-4.25876 -1.09956,-8.09081 17.9054,-5.74325 3.43969,0.42488 7.20077,-1.41426 9.77319,-1.13174 6.24297,0.68565 7.46219,3.90226 8.13222,6.87499 z"
       style="opacity:1;fill:#ffcc00;fill-opacity:1;fill-rule:nonzero;stroke:#000000;stroke-width:4;stroke-miterlimit:4;stroke-dasharray:none;stroke-dashoffset:0;stroke-opacity:1" />
    <ellipse
       ry="2.5188606"
       rx="1.1675091"
       cy="194.25676"
       cx="245.66217"
       id="path4154"
       style="opacity:1;fill:#000000;fill-opacity:1;fill-rule:nonzero;stroke:#000000;stroke-width:1.69200885;stroke-miterlimit:4;stroke-dasharray:none;stroke-dashoffset:0;stroke-opacity:1" />
    <ellipse
       style="opacity:1;fill:#000000;fill-opacity:1;fill-rule:nonzero;stroke:#000000;stroke-width:1.76316047;stroke-miterlimit:4;stroke-dasharray:none;stroke-dashoffset:0;stroke-opacity:1"
       id="ellipse4156"
       cx="289.66217"
       cy="191.91891"
       rx="1.1319333"
       ry="2.8211226" />
    <path
       sodipodi:nodetypes="ccccccccccccccccsccccccccccccccccccccccccccccccccccccccccccccccccccccccccccccccc"
       inkscape:connector-curvature="0"
       id="path4158"
       d="m 195.94595,201.35135 5.4054,5.40541 -15.54054,1.35135 2.7027,-8.78379 -3.37837,-7.43243 -8.10811,-3.37838 7.43243,-6.75675 3.37838,-6.08108 0,-4.72973 -6.08108,-4.05406 -2.02703,-7.43243 -1.35135,-13.51351 6.08108,-8.78379 9.45946,6.75676 9.45946,1.35135 5.4054,-2.7027 c 0,0 -2.7027,-6.08108 -4.05405,-3.37838 L 200,135.81081 l 6.75676,9.45946 -10.13514,1.35135 -2.7027,-4.05405 -4.05406,-18.24325 5.40541,-9.45946 10.81081,-6.75675 27.02703,-7.43243 8.78378,6.75675 3.37838,10.13514 1.35135,-12.16216 10.13514,-14.189194 17.56757,-15.54054 20.27026,-3.378379 6.08109,3.378378 0,12.162162 0.67567,18.243243 -4.05405,10.13514 1.35135,5.4054 7.43243,-13.51351 17.56757,-4.05406 5.4054,8.10811 2.02703,8.10811 -3.37838,12.83784 -8.10811,5.4054 12.16217,-2.02702 7.43243,5.4054 6.08108,10.81081 -4.05405,4.72973 -11.48649,1.35135 9.45946,9.45946 0,7.43244 -4.72973,2.7027 -2.02703,-4.05406 -2.02702,6.75676 -4.72973,0 -1.35136,-15.54054 -2.02702,4.05405 -8.10811,1.35136 2.02703,-8.10811 -2.02703,-8.10811 -9.45946,0 1.35135,-6.08108 -8.10811,-3.37838 -10.81081,2.7027 -5.4054,5.40541 -4.05406,-6.75676 -6.75675,5.40541 -3.37838,-6.75676 -6.75676,0 -8.78378,7.43243 -10.81081,-2.02702 -5.40541,1.35135 -22.97297,4.05405 2.02702,7.43243 -5.4054,3.37838 1.35135,10.13514 -1.35135,2.02702 -6.08108,-2.02702 -2.02703,2.7027 4.05406,10.81081 -0.67568,10.13514 z"
       style="fill:#ff0000;fill-rule:evenodd;stroke:#000000;stroke-width:4;stroke-linecap:butt;stroke-linejoin:miter;stroke-miterlimit:4;stroke-dasharray:none;stroke-opacity:1" />
    <path
       inkscape:connector-curvature="0"
       id="path4160"
       d="m 289.18919,156.08108 18.91892,2.7027 z"
       style="fill:none;fill-rule:evenodd;stroke:#000000;stroke-width:4;stroke-linecap:butt;stroke-linejoin:miter;stroke-miterlimit:4;stroke-dasharray:none;stroke-opacity:1" />
    <path
       inkscape:connector-curvature="0"
       id="path4164"
       d="m 268.24324,265.54054 -16.21621,0.67568 z"
       style="fill:none;fill-rule:evenodd;stroke:#000000;stroke-width:4;stroke-linecap:butt;stroke-linejoin:miter;stroke-miterlimit:4;stroke-dasharray:none;stroke-opacity:1" />
    <path
       inkscape:connector-curvature="0"
       id="path4168"
       d="m 187.83784,237.83784 2.7027,12.16216 -7.43243,16.21622 21.62162,12.16216 12.16216,18.91892 -2.02703,20.27027 -8.1081,22.97297 56.75675,39.86487 3.37838,2.02702 -27.7027,-58.78378 -1.35135,-19.5946 0.67567,-8.78378 -8.78378,-24.32432 z"
       style="fill:#ffffff;fill-rule:evenodd;stroke:#000000;stroke-width:4;stroke-linecap:butt;stroke-linejoin:miter;stroke-miterlimit:4;stroke-dasharray:none;stroke-opacity:1" />
    <path
       inkscape:connector-curvature="0"
       id="path4170"
       d="m 306.75676,268.24324 0.67567,15.54054 -10.13513,25 -16.89189,33.10811 -8.78379,41.21622 15.54054,-14.18919 21.62162,-10.13514 L 324.32432,350 332.43243,335.81081 347.2973,325 l -0.67568,-7.43243 -8.78378,-10.81081 -1.35135,-14.18919 -0.67568,-12.83784 2.7027,-12.83784 10.81081,-11.48648 6.08109,-1.35136 -14.18919,-10.81081 -14.86487,18.91892 z"
       style="fill:#ffffff;fill-rule:evenodd;stroke:#000000;stroke-width:4;stroke-linecap:butt;stroke-linejoin:miter;stroke-miterlimit:4;stroke-dasharray:none;stroke-opacity:1" />
    <path
       inkscape:connector-curvature="0"
       id="path4172"
       d="m 230.40541,270.94595 6.75675,21.62162 27.02703,-12.83784 z"
       style="fill:#cccccc;fill-rule:evenodd;stroke:#000000;stroke-width:4;stroke-linecap:butt;stroke-linejoin:miter;stroke-miterlimit:4;stroke-dasharray:none;stroke-opacity:1" />
    <path
       sodipodi:nodetypes="cccc"
       inkscape:connector-curvature="0"
       id="path4174"
       d="m 299.98724,293.88864 c -11.02541,2.72251 -22.0508,-9.24159 -33.07621,-17.16857 l 39.15143,-6.43821 c 3.86305,10.36491 -1.16519,16.96079 -6.07522,23.60678 z"
       style="fill:#cccccc;fill-rule:evenodd;stroke:#000000;stroke-width:4;stroke-linecap:butt;stroke-linejoin:miter;stroke-miterlimit:4;stroke-dasharray:none;stroke-opacity:1" />
    <path
       inkscape:connector-curvature="0"
       id="path4176"
       d="m 266.21622,278.37838 -17.56757,10.81081 11.48649,16.89189 18.24324,-17.56757 z"
       style="fill:#53a51d;fill-opacity:1;fill-rule:evenodd;stroke:#000000;stroke-width:4;stroke-linecap:butt;stroke-linejoin:miter;stroke-miterlimit:4;stroke-dasharray:none;stroke-opacity:1" />
    <path
       inkscape:connector-curvature="0"
       id="path4178"
       d="M 259.45946,304.05405 250,339.86486 l 17.56757,43.91892 8.78378,-34.45946 -11.48648,-45.27027 z"
       style="fill:#44aa00;fill-rule:evenodd;stroke:#000000;stroke-width:4;stroke-linecap:butt;stroke-linejoin:miter;stroke-miterlimit:4;stroke-dasharray:none;stroke-opacity:1" />
    <ellipse
       ry="1.2606572"
       rx="7.3417387"
       cy="222.97298"
       cx="233.10811"
       id="path4189"
       style="opacity:1;fill:#ffaaaa;fill-opacity:1;fill-rule:nonzero;stroke:#ffaaaa;stroke-width:2.83003712;stroke-miterlimit:4;stroke-dasharray:none;stroke-dashoffset:0;stroke-opacity:1" />
    <ellipse
       style="opacity:1;fill:#ffaaaa;fill-opacity:1;fill-rule:nonzero;stroke:#ffaaaa;stroke-width:2.83003712;stroke-miterlimit:4;stroke-dasharray:none;stroke-dashoffset:0;stroke-opacity:1"
       id="ellipse4191"
       cx="307.43243"
       cy="219.5946"
       rx="7.3417387"
       ry="1.2606572" />
    <path
       inkscape:connector-curvature="0"
       id="path4193"
       d="m 177.7027,210.13513 c 9.46476,-0.62877 8.10811,5.50204 8.10811,8.10811"
       style="fill:none;fill-rule:evenodd;stroke:#000000;stroke-width:4;stroke-linecap:butt;stroke-linejoin:miter;stroke-miterlimit:4;stroke-dasharray:none;stroke-opacity:1" />
    <path
       inkscape:connector-curvature="0"
       id="path4195"
       d="m 183.78378,212.83784 c -0.42195,1.24076 -3.23988,5.94258 -2.02702,4.72973"
       style="fill:none;fill-rule:evenodd;stroke:#000000;stroke-width:4;stroke-linecap:butt;stroke-linejoin:miter;stroke-miterlimit:4;stroke-dasharray:none;stroke-opacity:1" />
    <ellipse
       ry="2.0270271"
       rx="1.6891892"
       cy="406.08109"
       cx="280.06757"
       id="path4197"
       style="opacity:1;fill:#000000;fill-opacity:1;fill-rule:nonzero;stroke:#000000;stroke-width:4;stroke-miterlimit:4;stroke-dasharray:none;stroke-dashoffset:0;stroke-opacity:1" />
    <ellipse
       style="opacity:1;fill:#000000;fill-opacity:1;fill-rule:nonzero;stroke:#000000;stroke-width:4;stroke-miterlimit:4;stroke-dasharray:none;stroke-dashoffset:0;stroke-opacity:1"
       id="ellipse4199"
       cx="278.06757"
       cy="440.08109"
       rx="1.6891892"
       ry="2.0270271" />
    <ellipse
       ry="2.0270271"
       rx="1.6891892"
       cy="476.08109"
       cx="276.06757"
       id="ellipse4201"
       style="opacity:1;fill:#000000;fill-opacity:1;fill-rule:nonzero;stroke:#000000;stroke-width:4;stroke-miterlimit:4;stroke-dasharray:none;stroke-dashoffset:0;stroke-opacity:1" />
    <ellipse
       style="opacity:1;fill:#000000;fill-opacity:1;fill-rule:nonzero;stroke:#000000;stroke-width:4;stroke-miterlimit:4;stroke-dasharray:none;stroke-dashoffset:0;stroke-opacity:1"
       id="ellipse4203"
       cx="274.06757"
       cy="522.08105"
       rx="1.6891892"
       ry="2.0270271" />
    <path
       sodipodi:nodetypes="ccccc"
       inkscape:connector-curvature="0"
       id="path4205"
       d="m 188.63945,510.1718 c 14.16738,-6.93076 29.52061,-8.70436 41.56186,-10.71619 l 0.76928,10.6426 -35.38716,5.98645 z"
       style="fill:none;fill-rule:evenodd;stroke:#000000;stroke-width:4.2347641;stroke-linecap:butt;stroke-linejoin:miter;stroke-miterlimit:4;stroke-dasharray:none;stroke-opacity:1" />
    <path
       inkscape:connector-curvature="0"
       id="path4207"
       d="m 347.16907,514.08002 0,-8.61008 -45.01381,-5.96084 0,11.25934 z"
       style="fill:none;fill-rule:evenodd;stroke:#000000;stroke-width:4.28143358;stroke-linecap:butt;stroke-linejoin:miter;stroke-miterlimit:4;stroke-dasharray:none;stroke-opacity:1" />
    <path
       inkscape:connector-curvature="0"
       id="path4209"
       d="m 208.10811,566.21622 -1.35135,22.97297 54.72973,2.7027 5.4054,-21.62162 z"
       style="fill:#00aad4;fill-rule:evenodd;stroke:#000000;stroke-width:4;stroke-linecap:butt;stroke-linejoin:miter;stroke-miterlimit:4;stroke-dasharray:none;stroke-opacity:1" />
    <path
       sodipodi:nodetypes="ccccccc"
       inkscape:connector-curvature="0"
       id="path4213"
       d="m 218.24324,590.54054 -1.35135,16.21622 c -7.36941,-7.19792 -15.83069,-6.75275 -25,-1.35135 -4.97405,6.92981 -11.9818,13.63365 -1.35135,22.29729 l 63.51351,-3.37838 -3.37837,-31.08108 z"
       style="fill:#000000;fill-rule:evenodd;stroke:#000000;stroke-width:1px;stroke-linecap:butt;stroke-linejoin:miter;stroke-opacity:1" />
    <path
       sodipodi:nodetypes="ccccccc"
       inkscape:connector-curvature="0"
       id="path4215"
       d="m 284.45946,594.62162 -1.35135,27.7027 61.48648,9.45946 c 9.26929,-8.55856 10.54659,-17.11711 5.40541,-25.67567 -9.16582,-4.70976 -19.01974,-7.3552 -31.75676,-1.35135 l 0,-11.48649 z"
       style="fill:#000000;fill-rule:evenodd;stroke:#000000;stroke-width:1px;stroke-linecap:butt;stroke-linejoin:miter;stroke-opacity:1" />
    <path
       sodipodi:nodetypes="cccccccccccccccccccccc"
       inkscape:connector-curvature="0"
       id="path4221"
       d="m 133.78378,404.05405 -4.72973,46.62163 c 0.16887,3.2095 -0.65104,9.09698 2.02703,9.79729 l 4.72973,-1.01351 2.7027,-7.43243 -3.37837,7.43243 c 1.7133,2.06729 3.29822,4.51973 6.75675,1.35135 l 4.05406,-7.43243 -4.05406,7.43243 c 1.62165,3.42329 4.27591,2.71617 6.75676,2.7027 l 4.72973,-12.16216 -2.7027,10.81081 c 1.00641,1.81602 1.78512,4.08741 5.4054,0.67568 l 2.7027,-9.45946 -0.67568,-6.08109 4.72974,4.72974 c 1.90161,1.85037 3.04252,-0.1027 4.05405,-2.70271 l -4.05405,-8.78378 -4.05406,-6.75676 -4.05405,-6.75675 4.05405,-15.54054 z"
       style="fill:#f2e2a7;fill-opacity:1;fill-rule:evenodd;stroke:#000000;stroke-width:4;stroke-linecap:butt;stroke-linejoin:miter;stroke-miterlimit:4;stroke-dasharray:none;stroke-opacity:1" />
    <path
       style="fill:#f2e2a7;fill-opacity:1;fill-rule:evenodd;stroke:#000000;stroke-width:4;stroke-linecap:butt;stroke-linejoin:miter;stroke-miterlimit:4;stroke-dasharray:none;stroke-opacity:1"
       d="m 406.3288,404.05405 4.72973,46.62163 c -0.16887,3.2095 0.65104,9.09698 -2.02703,9.79729 l -4.72973,-1.01351 -2.7027,-7.43243 3.37837,7.43243 c -1.7133,2.06729 -3.29822,4.51973 -6.75675,1.35135 l -4.05406,-7.43243 4.05406,7.43243 c -1.62165,3.42329 -4.27591,2.71617 -6.75676,2.7027 l -4.72973,-12.16216 2.7027,10.81081 c -1.00641,1.81602 -1.78512,4.08741 -5.4054,0.67568 l -2.7027,-9.45946 0.67568,-6.08109 -4.72974,4.72974 c -1.90161,1.85037 -3.04252,-0.1027 -4.05405,-2.70271 l 4.05405,-8.78378 4.05406,-6.75676 4.05405,-6.75675 -4.05405,-15.54054 z"
       id="path4223"
       inkscape:connector-curvature="0"
       sodipodi:nodetypes="cccccccccccccccccccccc" />
  </g>
</svg>
